<?xml version="1.0" encoding="UTF-8"?>
<svg version="1.1" xmlns="http://www.w3.org/2000/svg" width="714" height="185">
<path d="M0 0 C235.62 0 471.24 0 714 0 C714 61.05 714 122.1 714 185 C478.38 185 242.76 185 0 185 C0 123.95 0 62.9 0 0 Z " fill="#FEFEFE" transform="translate(0,0)"/>
<path d="M0 0 C2.22396434 1.6169529 2.91077018 2.56649177 3.46875 5.27734375 C3.68027113 23.28308015 -9.6772143 39.0874475 -19.87109375 53.01171875 C-28.10282564 64.56635159 -29.69580308 76.19990565 -29 90 C-27.68 90.33 -26.36 90.66 -25 91 C-14.13431288 80.58354026 -6.45565349 66.95789254 0.3125 53.625 C2.94380277 48.68539868 6.13539824 44.86596693 11 42 C15.31179243 41.1961065 17.13503818 41.54949905 21 43.5625 C23 46 23 46 23.25 49.25 C21.57150321 54.28549036 19.02097447 57.55238671 15 61 C13.43295198 61.72385165 11.84888028 62.41197518 10.25 63.0625 C7.86548063 64.07646347 7.86548063 64.07646347 6 66 C4.31621926 70.95042159 3.56736944 75.81541721 3 81 C14.8298712 77.86487512 19.45792764 69.81310854 26 60 C26.4640625 58.2675 26.4640625 58.2675 26.9375 56.5 C28.47222222 51.44444444 28.47222222 51.44444444 31 50 C34.1875 50.3125 34.1875 50.3125 37 51 C38.00173581 53.62503059 38.12834354 54.68853213 37.0390625 57.33203125 C36.33910156 58.55986328 36.33910156 58.55986328 35.625 59.8125 C33.37062954 64.02773562 32.30968743 67.2514594 32 72 C37.88156394 68.63910632 42.01490565 65.48022309 45.4375 59.5625 C48.22836519 55.0499972 50.41368575 51.73227232 55 49 C59.11016268 48.82874322 61.2937946 50.03822609 64.375 52.5625 C65.24125 53.366875 66.1075 54.17125 67 55 C67.08765625 54.03835937 67.1753125 53.07671875 67.265625 52.0859375 C67.95751136 47.27418234 69.8237802 43.05813822 71.75 38.625 C72.08515625 37.82578125 72.4203125 37.0265625 72.765625 36.203125 C80.51776049 18.05608056 80.51776049 18.05608056 88 14 C91.57594211 13.20973655 94.65428117 13.32714058 98 15 C99.74045869 18.48091737 99.76828122 21.28379526 99 25 C94.65367017 36.5471799 87.21768567 46.04121644 79.06640625 55.1640625 C71.7502005 63.73916649 71.57427012 76.18787985 71 87 C74.27210046 85.90929985 74.72913324 85.38736687 76.671875 82.71875 C77.16800293 82.04593994 77.66413086 81.37312988 78.17529297 80.67993164 C78.69494629 79.9605542 79.21459961 79.24117676 79.75 78.5 C80.8300698 77.0294634 81.91079478 75.55940779 82.9921875 74.08984375 C83.51135742 73.38069824 84.03052734 72.67155273 84.56542969 71.94091797 C86.28833214 69.60989781 88.07123485 67.33136155 89.875 65.0625 C92.12004147 62.21260512 94.1518607 59.29441443 96.125 56.25 C99.14845926 51.63015425 102.38193265 48.07871156 107 45 C109.875 44.4375 109.875 44.4375 113 45 C115.03364291 47.12367397 116.53493485 49.45882505 118 52 C118.556875 51.484375 119.11375 50.96875 119.6875 50.4375 C122 49 122 49 124.6875 49.25 C127 50 127 50 128 51 C127.40855152 57.26935393 127.40855152 57.26935393 126.05859375 59.68359375 C124.44066436 63.2239337 123.99648209 66.92598268 123.375 70.75 C123.2409375 71.54277344 123.106875 72.33554688 122.96875 73.15234375 C122.64012702 75.10060858 122.31929295 77.05018439 122 79 C126.14040704 77.61986432 127.62315784 74.70341184 130 71.25 C130.43828125 70.62867187 130.8765625 70.00734375 131.328125 69.3671875 C132.5722459 67.59094261 133.79099052 65.80027689 135 64 C135.60070312 63.10796875 136.20140625 62.2159375 136.8203125 61.296875 C138.09293907 58.81904579 138.21406858 57.71254864 137.875 55 C137.73424181 51.46763959 137.95663417 51.06071216 140.1875 47.9375 C143 46 143 46 145.8125 46.1875 C146.534375 46.455625 147.25625 46.72375 148 47 C147.4118332 50.02485781 146.75929472 53.01386614 146 56 C146.62648438 56.04898438 147.25296875 56.09796875 147.8984375 56.1484375 C148.71570313 56.22320312 149.53296875 56.29796875 150.375 56.375 C151.18710937 56.44460937 151.99921875 56.51421875 152.8359375 56.5859375 C155 57 155 57 157 59 C156.60720778 62.51295922 155.47738242 65.60326547 154.15234375 68.86328125 C153.79462891 69.74951172 153.43691406 70.63574219 153.06835938 71.54882812 C152.69517578 72.46083984 152.32199219 73.37285156 151.9375 74.3125 C151.37192383 75.70952148 151.37192383 75.70952148 150.79492188 77.13476562 C149.86716875 79.42478917 148.93541999 81.71309996 148 84 C152.96427406 81.55436498 155.6970098 78.03382739 159 73.75 C159.50789062 73.10675781 160.01578125 72.46351562 160.5390625 71.80078125 C167.18510411 63.66566 167.18510411 63.66566 172 54.4375 C172.31453125 53.60347656 172.6290625 52.76945312 172.953125 51.91015625 C173.47132813 50.46962891 173.47132813 50.46962891 174 49 C174.67289062 47.14181641 174.67289062 47.14181641 175.359375 45.24609375 C176.58773973 41.83592336 177.79776325 38.41947667 179 35 C177.97519531 35.16242188 176.95039063 35.32484375 175.89453125 35.4921875 C172.43522028 35.94325112 169.17038362 36.13385104 165.6875 36.125 C164.66011719 36.12757812 163.63273438 36.13015625 162.57421875 36.1328125 C160 36 160 36 158 35 C158 34.34 158 33.68 158 33 C160.7902667 32.0699111 162.76529542 31.81301231 165.66796875 31.68359375 C166.56064453 31.64169922 167.45332031 31.59980469 168.37304688 31.55664062 C169.76620117 31.49766602 169.76620117 31.49766602 171.1875 31.4375 C172.12787109 31.39431641 173.06824219 31.35113281 174.03710938 31.30664062 C176.35792854 31.20061335 178.67885325 31.09854971 181 31 C181.43570312 30.09378906 181.87140625 29.18757813 182.3203125 28.25390625 C190.45147256 11.54852744 190.45147256 11.54852744 195 7 C197.67058851 6.85884839 200.32432238 6.95752893 203 7 C203.75 8.625 203.75 8.625 204 11 C203.07766062 12.4422034 202.14689582 13.87996442 201.16699219 15.28369141 C199.1793553 18.20693143 197.48478579 21.2973615 195.75 24.375 C195.38648438 25.01566406 195.02296875 25.65632813 194.6484375 26.31640625 C193.76362451 27.87647126 192.88152496 29.43807471 192 31 C196.29 31 200.58 31 205 31 C204.67 31.99 204.34 32.98 204 34 C198.94997778 35.03590199 194.12583611 35.10251672 189 35 C188.88914062 35.86496094 188.77828125 36.72992188 188.6640625 37.62109375 C187.97685265 41.11777916 186.87096992 43.83456491 185.375 47.0625 C179.4030978 60.44360967 174.80233384 74.61468627 172 89 C177.24306648 86.47226927 180.25354977 82.4442228 183.8125 78 C184.42907471 77.24340088 185.04564941 76.48680176 185.6809082 75.70727539 C189.84436257 70.56025895 193.7628673 65.30951287 197.44921875 59.80859375 C197.96097656 59.21175781 198.47273438 58.61492187 199 58 C199.99 58 200.98 58 202 58 C201.39375869 61.0378961 200.45293751 63.09738881 198.6640625 65.6171875 C197.94089844 66.64162964 197.94089844 66.64162964 197.203125 67.68676758 C196.68234375 68.40888428 196.1615625 69.13100098 195.625 69.875 C195.09132813 70.62225342 194.55765625 71.36950684 194.0078125 72.1394043 C190.43475988 77.10554716 186.77016722 81.99441564 183 86.8125 C182.33411865 87.66400635 182.33411865 87.66400635 181.65478516 88.53271484 C175.16993207 96.70001742 175.16993207 96.70001742 171.5625 97.625 C168.43831382 96.86300337 166.86818508 95.46793959 164.9453125 92.91015625 C162.66477814 88.30196905 163.56767138 83.43208854 165 78.6875 C165.33 77.800625 165.66 76.91375 166 76 C166 74.68 166 73.36 166 72 C165.52691406 72.71285156 165.05382812 73.42570312 164.56640625 74.16015625 C154.46899841 88.78466702 154.46899841 88.78466702 145.625 90.75 C143 90 143 90 141.125 87.9375 C139.21406935 82.94784774 139.52267941 78.70152479 141.53125 73.81640625 C142.17434019 72.39242084 142.83085208 70.97442794 143.5 69.5625 C144.00080078 68.46518555 144.00080078 68.46518555 144.51171875 67.34570312 C145.3294393 65.55839965 146.16310347 63.77840513 147 62 C144.03 61.505 144.03 61.505 141 61 C140.57589844 61.83402344 140.15179688 62.66804688 139.71484375 63.52734375 C130.50601581 81.19614988 130.50601581 81.19614988 123 86 C120.09021251 85.85805915 118.54319546 85.42679643 116.25 83.625 C113.76480963 80.39425252 113.89065725 77.34626718 113.9375 73.4375 C113.94652344 72.46683594 113.95554687 71.49617188 113.96484375 70.49609375 C113.98224609 69.26052734 113.98224609 69.26052734 114 68 C114 67.34 114 66.68 114 66 C113.55269531 66.66386719 113.10539063 67.32773438 112.64453125 68.01171875 C105.70106762 78.15302491 105.70106762 78.15302491 102 81 C98.875 81.5625 98.875 81.5625 96 81 C92.96175657 78.59035866 92.74026634 75.92069764 92.3125 72.25 C92.19604647 70.83429039 92.08785338 69.41777182 92 68 C91.14728516 69.14275391 91.14728516 69.14275391 90.27734375 70.30859375 C88.25415731 73.01405675 86.22577361 75.71541562 84.19287109 78.41357422 C83.13087753 79.82594306 82.07478488 81.24274457 81.01953125 82.66015625 C74.91329322 90.73440919 74.91329322 90.73440919 71 93 C68.4375 93.125 68.4375 93.125 66 92 C61.82904084 87.36560093 61.26593153 82.98345934 61 77 C60.12988281 77.74056641 60.12988281 77.74056641 59.2421875 78.49609375 C51.48330404 84.85940246 51.48330404 84.85940246 46 85 C42.35224614 81.11690718 41.41474367 78.28798182 41 73 C40.484375 73.680625 39.96875 74.36125 39.4375 75.0625 C37 77 37 77 33.5625 77.1875 C28.87017805 75.62339268 27.36982104 73.18267953 25 69 C21.10179659 72.66194866 17.92423715 76.61292617 14.74609375 80.9140625 C11.92397815 84.28544892 10.01875354 85.84907355 5.625 86.5 C0.67468323 85.81719769 -0.7932057 84.84815316 -4 81 C-4 77.87123963 -3.7990572 75.92069182 -3 73 C-2.82339844 72.31679687 -2.64679688 71.63359375 -2.46484375 70.9296875 C-2.01294756 69.27608219 -1.51131509 67.63620829 -1 66 C-1.66 66 -2.32 66 -3 66 C-3.0928125 66.70898438 -3.185625 67.41796875 -3.28125 68.1484375 C-5.76728725 78.01152007 -16.04612503 90.62929669 -24.1875 96.6875 C-27.46660517 98.21774908 -29.42493705 98.54403132 -33 98 C-35.375 96.5 -35.375 96.5 -37 95 C-37.99 95.66 -38.98 96.32 -40 97 C-43.23312653 98.02279374 -45.74591914 97.94871162 -49 97 C-57.86796326 90.51016223 -64.38089548 82.24281835 -70.1875 73 C-70.86329102 71.95199219 -70.86329102 71.95199219 -71.55273438 70.8828125 C-73.81563756 67.28659454 -75.56927031 64.32418824 -76 60 C-76.66 60 -77.32 60 -78 60 C-78.03738281 60.60585937 -78.07476562 61.21171875 -78.11328125 61.8359375 C-78.54933319 67.39346216 -79.58332957 72.29897213 -81.30078125 77.59375 C-82.30532985 81.05074408 -82.66856405 84.42049178 -83 88 C-85.475 88.495 -85.475 88.495 -88 89 C-90.85063831 85.69325956 -91.21676595 83.1386312 -90.9375 78.9375 C-90.29440061 73.62835722 -88.77027941 68.84667122 -86.96875 63.828125 C-86.14071036 61.41078348 -85.54440181 59.12718249 -85.0625 56.625 C-84.00242221 51.42780445 -82.10759392 46.56310439 -80.28125 41.59375 C-79.11876937 38.3331336 -78.09783577 35.07106005 -77.125 31.75 C-74.59444645 23.3113359 -71.26620317 15.17468266 -68 7 C-65.125 6.875 -65.125 6.875 -62 7 C-61.34 7.66 -60.68 8.32 -60 9 C-60.3347886 12.79427084 -61.8027659 16.15238465 -63.1418457 19.69042969 C-64.98435227 24.64920981 -66.67567069 29.66330573 -68.39453125 34.66601562 C-70.08454016 39.53875056 -71.90278288 44.28765544 -74 49 C-73.22076172 48.31164062 -73.22076172 48.31164062 -72.42578125 47.609375 C-66.35846995 42.27103825 -66.35846995 42.27103825 -63.4375 40.0625 C-60.64502908 37.69963999 -58.38357945 35.11207202 -56.0234375 32.32421875 C-54.57491827 30.66037909 -53.07318335 29.04228946 -51.5390625 27.45703125 C-45.49203201 21.16485087 -41.44286306 15.01935175 -38 7 C-34.125 8.75 -34.125 8.75 -33 11 C-32.42459375 15.76765181 -32.39490001 18.74394546 -35.25 22.6875 C-36.46924846 24.15117327 -37.72498606 25.58463937 -39 27 C-39.42925781 27.48130371 -39.85851562 27.96260742 -40.30078125 28.45849609 C-43.80079391 32.36949509 -47.38457221 36.19581962 -51 40 C-51.88558594 40.93972656 -52.77117187 41.87945312 -53.68359375 42.84765625 C-58.63296247 47.9668941 -63.66388927 52.64076888 -70 56 C-70.66 56 -71.32 56 -72 56 C-69.22563505 61.1854202 -66.12783182 65.52793564 -62.25 69.9375 C-61.71850342 70.54505127 -61.18700684 71.15260254 -60.6394043 71.77856445 C-59.5812286 72.98033025 -58.51908933 74.17861995 -57.45263672 75.37304688 C-56.20934209 76.76553686 -54.98015685 78.17060258 -53.75390625 79.578125 C-49.35329833 84.35946962 -45.35413113 86.58797086 -39 88 C-39.05220703 86.94425781 -39.05220703 86.94425781 -39.10546875 85.8671875 C-39.89924235 56.91335042 -25.40768738 23.54845045 -8 1 C-5.20129973 -0.39935013 -3.09501208 -0.25265405 0 0 Z " fill="#1A4933" transform="translate(210,36)"/>
<path d="M0 0 C2.01822917 0.06510417 4.03645833 0.13020833 6.0546875 0.1953125 C6.71484375 1.97265625 6.71484375 1.97265625 7.0546875 4.1953125 C6.05078125 5.94921875 6.05078125 5.94921875 4.4921875 7.7578125 C0.61654373 12.55925407 -2.08033852 17.73821921 -4.9453125 23.1953125 C-0.6553125 23.5253125 3.6346875 23.8553125 8.0546875 24.1953125 C8.0546875 24.8553125 8.0546875 25.5153125 8.0546875 26.1953125 C4.10961313 27.45437879 0.42549119 28.34052022 -3.69921875 28.76171875 C-4.49787354 28.84494385 -5.29652832 28.92816895 -6.11938477 29.01391602 C-7.02321899 29.10370728 -7.02321899 29.10370728 -7.9453125 29.1953125 C-9.58947553 33.35057493 -11.22471552 37.50921656 -12.85253906 41.67089844 C-13.40491618 43.07968412 -13.95952464 44.48759739 -14.51660156 45.89453125 C-21.54232801 63.56968457 -21.54232801 63.56968457 -24.9453125 82.1953125 C-23.9553125 82.1953125 -22.9653125 82.1953125 -21.9453125 82.1953125 C-21.7184375 81.65777344 -21.4915625 81.12023437 -21.2578125 80.56640625 C-19.53648026 77.45673759 -17.27418603 74.91823818 -14.9453125 72.2578125 C-10.46918878 67.08136317 -6.23819413 61.77726503 -2.20703125 56.24633789 C-0.17215631 53.51686622 0.73979042 52.30027819 4.0546875 51.1953125 C3.59488985 56.14986682 1.04952722 59.36970347 -1.8828125 63.1953125 C-2.61781982 64.17346924 -2.61781982 64.17346924 -3.36767578 65.17138672 C-4.88536804 67.1857073 -6.4152391 69.19038874 -7.9453125 71.1953125 C-8.87178347 72.42656465 -9.79759316 73.65831474 -10.72265625 74.890625 C-20.81619751 88.23721075 -20.81619751 88.23721075 -25.4453125 90.3203125 C-27.9453125 90.1953125 -27.9453125 90.1953125 -30.7578125 88.5703125 C-34.06851276 84.84317195 -33.43079363 80.22335534 -33.25390625 75.51171875 C-32.85708826 71.24718112 -32.06574918 67.32692277 -30.9453125 63.1953125 C-31.53699219 63.61683594 -32.12867188 64.03835937 -32.73828125 64.47265625 C-33.52847656 65.02050781 -34.31867187 65.56835938 -35.1328125 66.1328125 C-35.91011719 66.67808594 -36.68742188 67.22335938 -37.48828125 67.78515625 C-40.02481549 69.2409414 -42.0671307 69.79144685 -44.9453125 70.1953125 C-45.09226562 71.13890625 -45.23921875 72.0825 -45.390625 73.0546875 C-46.92286703 81.82545224 -48.98663141 89.61524532 -53.9453125 97.1953125 C-57.67786698 99.68368215 -59.52972185 99.73757802 -63.9453125 99.1953125 C-67.01325048 96.41669963 -68.18967214 94.2078148 -68.44140625 90.15625 C-68.44672715 88.62748866 -68.4261554 87.09846856 -68.3828125 85.5703125 C-68.3725 84.7757666 -68.3621875 83.9812207 -68.3515625 83.16259766 C-68.17786883 76.87258805 -67.13633736 71.11629634 -64.9453125 65.1953125 C-66.028125 66.4328125 -66.028125 66.4328125 -67.1328125 67.6953125 C-69.9453125 70.1953125 -69.9453125 70.1953125 -72.4453125 70.8203125 C-77.07553552 69.66275674 -79.39947776 66.0140646 -81.9453125 62.1953125 C-82.19470426 56.17428278 -80.33148889 50.63579467 -77.9453125 45.1953125 C-77.2853125 44.5353125 -76.6253125 43.8753125 -75.9453125 43.1953125 C-73.0027162 43.50183295 -70.59988942 43.86802404 -67.9453125 45.1953125 C-68.8834465 47.61882533 -69.85586861 50.00652444 -70.96875 52.35546875 C-73.70495451 58.00352721 -73.70495451 58.00352721 -73.9453125 64.1953125 C-68.7253311 62.81355272 -65.89037528 59.51875505 -62.9453125 55.1953125 C-60.29119813 50.3524608 -58.09300751 45.30694055 -55.90161133 40.24291992 C-52.55969288 32.56231756 -48.99263795 25.1140072 -44.7578125 17.8828125 C-44.3664209 17.20871338 -43.9750293 16.53461426 -43.57177734 15.84008789 C-36.84176464 4.64353857 -36.84176464 4.64353857 -31.9453125 2.1953125 C-28.9453125 1.9453125 -28.9453125 1.9453125 -25.9453125 2.1953125 C-23.21920214 6.28447804 -23.31546526 9.39089631 -23.9453125 14.1953125 C-25.05734776 17.67646637 -26.43891518 20.85299346 -27.9453125 24.1953125 C-24.3153125 24.1953125 -20.6853125 24.1953125 -16.9453125 24.1953125 C-16.59339844 23.44507812 -16.24148438 22.69484375 -15.87890625 21.921875 C-5.57447516 0.55968626 -5.57447516 0.55968626 0 0 Z " fill="#1C4A34" transform="translate(567.9453125,42.8046875)"/>
<path d="M0 0 C4.09544197 1.96896248 5.69052879 3.43263611 7.875 7.4375 C8.92673842 10.76800498 9.43545528 12.59320278 9 16 C7.20703125 18.5703125 7.20703125 18.5703125 4.8125 21.125 C4.03519531 21.97320312 3.25789063 22.82140625 2.45703125 23.6953125 C-3.19830508 29 -3.19830508 29 -7 29 C-5.91176258 26.0073471 -4.70141706 23.52413343 -3 20.8125 C-0.44356822 16.5009061 0.25060102 11.90067489 1 7 C-14.1630546 15.55351798 -26.11133763 36.67892106 -30.9453125 53.23828125 C-31.39896677 55.49696835 -31.77961714 57.70801829 -32 60 C-26.37924557 58.78768042 -23.91511678 57.39257005 -20 53 C-18.73211547 51.76779187 -17.46098926 50.53891476 -16.1875 49.3125 C-8.841052 41.95224288 -2.83877569 33.57570179 3 25 C7.765625 25.859375 7.765625 25.859375 9.875 27.125 C11.73277862 30.2212977 10.82042454 32.60109832 10 36 C9.53207031 36.7734375 9.06414062 37.546875 8.58203125 38.34375 C6.87068838 41.2171158 5.87066435 43.95432703 4.8125 47.125 C2.44695528 53.94206979 -0.2873866 60.55056602 -3.13208008 67.18017578 C-4.87042467 71.2501063 -6.49409597 75.29184223 -7.875 79.5 C-9.74682439 84.81464425 -12.28913549 89.7551635 -14.875 94.75 C-15.49157471 95.9575293 -15.49157471 95.9575293 -16.12060547 97.18945312 C-22.49742626 109.24871313 -22.49742626 109.24871313 -28 112 C-34.07029508 112.45813548 -37.18743518 111.41076984 -41.75 107.5 C-43.72335409 105.1319751 -44.01334174 102.88881883 -44.375 99.875 C-43.55035628 91.35368152 -38.17195031 85.50364996 -32 80 C-31.36191406 79.41734375 -30.72382813 78.8346875 -30.06640625 78.234375 C-25.30768107 74 -25.30768107 74 -23 74 C-25.08657469 78.54737201 -27.96348066 82.62290297 -30.72265625 86.77929688 C-33.78018263 91.45640407 -36.3204199 95.54761302 -36.125 101.3125 C-36.063125 103.1378125 -36.063125 103.1378125 -36 105 C-32.69409359 104.75511804 -31.86396527 103.85080062 -29.578125 101.34375 C-18.18153292 87.14781101 -13.13845188 66.90227029 -7 50 C-8.19847839 51.16042553 -8.19847839 51.16042553 -9.8203125 53.29296875 C-20.75266522 67.02326258 -20.75266522 67.02326258 -26 68.6015625 C-28.30603128 68.83740661 -29.80367753 68.75289756 -32 68 C-36.05392504 64.69779616 -39.56942266 60.01436931 -40.32055664 54.75585938 C-40.39332872 48.27848904 -39.09704995 43.37385266 -36.4375 37.5 C-35.89113892 36.25573242 -35.89113892 36.25573242 -35.33374023 34.98632812 C-32.52813796 28.77361806 -29.30945972 23.29761609 -25 18 C-24.30003906 17.07832031 -23.60007812 16.15664063 -22.87890625 15.20703125 C-9.50190843 -1.9720942 -9.50190843 -1.9720942 0 0 Z " fill="#1C4A34" transform="translate(477,44)"/>
<path d="M0 0 C2.05078125 0.03255208 4.1015625 0.06510417 6.15234375 0.09765625 C6.90234375 1.72265625 6.90234375 1.72265625 7.15234375 4.09765625 C6.23000437 5.53985965 5.29923957 6.97762067 4.31933594 8.38134766 C2.33169905 11.30458768 0.63712954 14.39501775 -1.09765625 17.47265625 C-1.46117187 18.11332031 -1.8246875 18.75398438 -2.19921875 19.4140625 C-3.08403174 20.97412751 -3.96613129 22.53573096 -4.84765625 24.09765625 C-0.55765625 24.09765625 3.73234375 24.09765625 8.15234375 24.09765625 C7.65734375 25.58265625 7.65734375 25.58265625 7.15234375 27.09765625 C2.10232153 28.13355824 -2.72182014 28.20017297 -7.84765625 28.09765625 C-7.95851563 28.96261719 -8.069375 29.82757813 -8.18359375 30.71875 C-8.8708036 34.21543541 -9.97668633 36.93222116 -11.47265625 40.16015625 C-17.44455845 53.54126592 -22.04532241 67.71234252 -24.84765625 82.09765625 C-19.60458977 79.56992552 -16.59410648 75.54187905 -13.03515625 71.09765625 C-12.41858154 70.34105713 -11.80200684 69.58445801 -11.16674805 68.80493164 C-7.00329368 63.6579152 -3.08478895 58.40716912 0.6015625 52.90625 C1.11332031 52.30941406 1.62507813 51.71257812 2.15234375 51.09765625 C3.14234375 51.09765625 4.13234375 51.09765625 5.15234375 51.09765625 C4.54610244 54.13555235 3.60528126 56.19504506 1.81640625 58.71484375 C1.33429688 59.39780518 0.8521875 60.0807666 0.35546875 60.78442383 C-0.1653125 61.50654053 -0.68609375 62.22865723 -1.22265625 62.97265625 C-1.75632812 63.71990967 -2.29 64.46716309 -2.83984375 65.23706055 C-6.41289637 70.20320341 -10.07748903 75.09207189 -13.84765625 79.91015625 C-14.29157715 80.47782715 -14.73549805 81.04549805 -15.19287109 81.63037109 C-21.67772418 89.79767367 -21.67772418 89.79767367 -25.28515625 90.72265625 C-28.40934243 89.96065962 -29.97947117 88.56559584 -31.90234375 86.0078125 C-34.18287811 81.3996253 -33.27998487 76.52974479 -31.84765625 71.78515625 C-31.51765625 70.89828125 -31.18765625 70.01140625 -30.84765625 69.09765625 C-30.84765625 67.77765625 -30.84765625 66.45765625 -30.84765625 65.09765625 C-31.32074219 65.81050781 -31.79382813 66.52335937 -32.28125 67.2578125 C-42.37865784 81.88232327 -42.37865784 81.88232327 -51.22265625 83.84765625 C-53.84765625 83.09765625 -53.84765625 83.09765625 -55.72265625 81.03515625 C-57.6335869 76.04550399 -57.32497684 71.79918104 -55.31640625 66.9140625 C-54.67331606 65.49007709 -54.01680417 64.07208419 -53.34765625 62.66015625 C-52.84685547 61.5628418 -52.84685547 61.5628418 -52.3359375 60.44335938 C-51.51821695 58.6560559 -50.68455278 56.87606138 -49.84765625 55.09765625 C-52.81765625 54.60265625 -52.81765625 54.60265625 -55.84765625 54.09765625 C-56.27175781 54.93167969 -56.69585937 55.76570313 -57.1328125 56.625 C-66.34164044 74.29380613 -66.34164044 74.29380613 -73.84765625 79.09765625 C-76.75744374 78.9557154 -78.30446079 78.52445268 -80.59765625 76.72265625 C-83.07000168 73.5086072 -82.95719696 70.48635473 -82.91015625 66.59765625 C-82.90113281 65.63859375 -82.89210938 64.67953125 -82.8828125 63.69140625 C-82.87121094 62.83546875 -82.85960937 61.97953125 -82.84765625 61.09765625 C-82.84765625 60.10765625 -82.84765625 59.11765625 -82.84765625 58.09765625 C-83.50765625 57.76765625 -84.16765625 57.43765625 -84.84765625 57.09765625 C-84.18765625 51.81765625 -83.52765625 46.53765625 -82.84765625 41.09765625 C-81.52765625 42.41765625 -80.20765625 43.73765625 -78.84765625 45.09765625 C-78.29078125 44.58203125 -77.73390625 44.06640625 -77.16015625 43.53515625 C-74.84765625 42.09765625 -74.84765625 42.09765625 -72.16015625 42.34765625 C-69.84765625 43.09765625 -69.84765625 43.09765625 -68.84765625 44.09765625 C-69.43910473 50.36701018 -69.43910473 50.36701018 -70.7890625 52.78125 C-72.40699189 56.32158995 -72.85117416 60.02363893 -73.47265625 63.84765625 C-73.67375 65.03681641 -73.67375 65.03681641 -73.87890625 66.25 C-74.20752923 68.19826483 -74.5283633 70.14784064 -74.84765625 72.09765625 C-70.70724921 70.71752057 -69.22449841 67.80106809 -66.84765625 64.34765625 C-66.409375 63.72632813 -65.97109375 63.105 -65.51953125 62.46484375 C-64.27541035 60.68859886 -63.05666573 58.89793314 -61.84765625 57.09765625 C-61.24695313 56.205625 -60.64625 55.31359375 -60.02734375 54.39453125 C-58.75471718 51.91670204 -58.63358767 50.81020489 -58.97265625 48.09765625 C-59.11341444 44.56529584 -58.89102208 44.15836841 -56.66015625 41.03515625 C-53.84765625 39.09765625 -53.84765625 39.09765625 -51.03515625 39.28515625 C-50.31328125 39.55328125 -49.59140625 39.82140625 -48.84765625 40.09765625 C-49.43582305 43.12251406 -50.08836153 46.11152239 -50.84765625 49.09765625 C-50.22117187 49.14664063 -49.5946875 49.195625 -48.94921875 49.24609375 C-48.13195312 49.32085937 -47.3146875 49.395625 -46.47265625 49.47265625 C-45.66054688 49.54226562 -44.8484375 49.611875 -44.01171875 49.68359375 C-41.84765625 50.09765625 -41.84765625 50.09765625 -39.84765625 52.09765625 C-40.24044847 55.61061547 -41.37027383 58.70092172 -42.6953125 61.9609375 C-43.05302734 62.84716797 -43.41074219 63.73339844 -43.77929688 64.64648438 C-44.15248047 65.55849609 -44.52566406 66.47050781 -44.91015625 67.41015625 C-45.28720703 68.34150391 -45.66425781 69.27285156 -46.05273438 70.23242188 C-46.9804875 72.52244542 -47.91223626 74.81075621 -48.84765625 77.09765625 C-43.88338219 74.65202123 -41.15064645 71.13148364 -37.84765625 66.84765625 C-37.33976562 66.20441406 -36.831875 65.56117187 -36.30859375 64.8984375 C-29.66255214 56.76331625 -29.66255214 56.76331625 -24.84765625 47.53515625 C-24.37585938 46.28412109 -24.37585938 46.28412109 -23.89453125 45.0078125 C-23.5490625 44.04746094 -23.20359375 43.08710937 -22.84765625 42.09765625 C-22.3990625 40.85886719 -21.95046875 39.62007812 -21.48828125 38.34375 C-20.25991652 34.93357961 -19.049893 31.51713292 -17.84765625 28.09765625 C-18.87246094 28.26007813 -19.89726562 28.4225 -20.953125 28.58984375 C-24.41243597 29.04090737 -27.67727263 29.23150729 -31.16015625 29.22265625 C-32.18753906 29.22523437 -33.21492188 29.2278125 -34.2734375 29.23046875 C-36.84765625 29.09765625 -36.84765625 29.09765625 -38.84765625 28.09765625 C-38.84765625 27.43765625 -38.84765625 26.77765625 -38.84765625 26.09765625 C-36.05738955 25.16756735 -34.08236083 24.91066856 -31.1796875 24.78125 C-30.28701172 24.73935547 -29.39433594 24.69746094 -28.47460938 24.65429688 C-27.54583984 24.61498047 -26.61707031 24.57566406 -25.66015625 24.53515625 C-24.71978516 24.49197266 -23.77941406 24.44878906 -22.81054688 24.40429688 C-20.48972771 24.2982696 -18.168803 24.19620596 -15.84765625 24.09765625 C-15.19410156 22.73833984 -15.19410156 22.73833984 -14.52734375 21.3515625 C-4.24388355 0.22430674 -4.24388355 0.22430674 0 0 Z " fill="#1E4C36" transform="translate(406.84765625,42.90234375)"/>
<path d="M0 0 C2 1 2 1 3 3 C4.54122882 11.16851274 0.2530004 18.25846714 -4 25 C-7.95984881 30.64263745 -12.34166048 36.02480789 -16.93359375 41.1640625 C-24.2497995 49.73916649 -24.42572988 62.18787985 -25 73 C-21.72789954 71.90929985 -21.27086676 71.38736687 -19.328125 68.71875 C-18.83199707 68.04593994 -18.33586914 67.37312988 -17.82470703 66.67993164 C-17.30505371 65.9605542 -16.78540039 65.24117676 -16.25 64.5 C-15.1699302 63.0294634 -14.08920522 61.55940779 -13.0078125 60.08984375 C-12.48864258 59.38069824 -11.96947266 58.67155273 -11.43457031 57.94091797 C-9.71166786 55.60989781 -7.92876515 53.33136155 -6.125 51.0625 C-3.87995853 48.21260512 -1.8481393 45.29441443 0.125 42.25 C3.14845926 37.63015425 6.38193265 34.07871156 11 31 C14.0625 30.6875 14.0625 30.6875 17 31 C19.32222996 34.48334494 19.14440302 35.35645537 18.6875 39.375 C18.58824219 40.31085938 18.48898437 41.24671875 18.38671875 42.2109375 C18 45 18 45 17.39453125 47.7265625 C16.76429334 50.02322046 16.76429334 50.02322046 18 52 C9.93023256 63.97674419 9.93023256 63.97674419 6 67 C2.875 67.5625 2.875 67.5625 0 67 C-3.03824343 64.59035866 -3.25973366 61.92069764 -3.6875 58.25 C-3.80395353 56.83429039 -3.91214662 55.41777182 -4 54 C-4.56847656 54.76183594 -5.13695312 55.52367187 -5.72265625 56.30859375 C-7.74584269 59.01405675 -9.77422639 61.71541562 -11.80712891 64.41357422 C-12.86912247 65.82594306 -13.92521512 67.24274457 -14.98046875 68.66015625 C-21.08670678 76.73440919 -21.08670678 76.73440919 -25 79 C-27.625 79 -27.625 79 -30 78 C-32.44362256 75.5505454 -32.97673993 74.25679121 -33.29296875 70.765625 C-33.25816406 69.60546875 -33.22335937 68.4453125 -33.1875 67.25 C-33.16042969 66.07953125 -33.13335937 64.9090625 -33.10546875 63.703125 C-33.07066406 62.81109375 -33.03585937 61.9190625 -33 61 C-33.99 60.67 -34.98 60.34 -36 60 C-38.57585768 61.82194812 -40.77124444 63.77124444 -43 66 C-43.99 66 -44.98 66 -46 66 C-46.74588244 57.04941077 -44.29123251 49.33306151 -38.828125 42.140625 C-38.22484375 41.43421875 -37.6215625 40.7278125 -37 40 C-36.401875 40.33 -35.80375 40.66 -35.1875 41 C-32.94613529 42.20787988 -32.94613529 42.20787988 -30 42 C-29.79246094 41.2471875 -29.58492188 40.494375 -29.37109375 39.71875 C-17.19658464 -2.25528979 -17.19658464 -2.25528979 0 0 Z " fill="#194832" transform="translate(306,50)"/>
<path d="M0 0 C2.13586678 3.20380017 2.23132175 4.01939967 2.125 7.6875 C2.10695313 8.49574219 2.08890625 9.30398437 2.0703125 10.13671875 C2.04710937 10.75160156 2.02390625 11.36648437 2 12 C0.66666667 12 -0.66666667 12 -2 12 C-2 10.02 -2 8.04 -2 6 C-8.19704339 8.06568113 -11.35854235 17.72630638 -14.21679688 23.42675781 C-19.71897035 34.4615843 -19.71897035 34.4615843 -24 46 C-23.5875 45.34 -23.175 44.68 -22.75 44 C-22.1725 43.34 -21.595 42.68 -21 42 C-19.68 42 -18.36 42 -17 42 C-18.39041715 46.37981401 -20.4011492 48.48257207 -23.75 51.5625 C-33.82496997 62.35087103 -35.74937405 78.76873918 -37 93 C-33.99010412 92.08394473 -32.36073385 91.51342543 -30.5234375 88.8984375 C-30.14445312 88.06570312 -29.76546875 87.23296875 -29.375 86.375 C-28.96378906 85.48296875 -28.55257812 84.5909375 -28.12890625 83.671875 C-26.64017194 80.14836542 -25.30225525 76.59670499 -24 73 C-23.36039986 71.6534734 -22.710001 70.31077107 -22 69 C-21.01 69.495 -21.01 69.495 -20 70 C-20.87803391 79.48276618 -22.978206 88.38829339 -29 96 C-32.12860495 97.56430248 -34.55602925 97.35627284 -38 97 C-41.07390779 94.22638515 -42.24388636 92.01213547 -42.49609375 87.9609375 C-42.50141465 86.43217616 -42.4808429 84.90315606 -42.4375 83.375 C-42.4271875 82.5804541 -42.416875 81.7859082 -42.40625 80.96728516 C-42.23255633 74.67727555 -41.19102486 68.92098384 -39 63 C-40.0828125 64.2375 -40.0828125 64.2375 -41.1875 65.5 C-44 68 -44 68 -46.5 68.625 C-51.13022302 67.46744424 -53.45416526 63.8187521 -56 60 C-56.24939176 53.97897028 -54.38617639 48.44048217 -52 43 C-51.34 42.34 -50.68 41.68 -50 41 C-47.0574037 41.30652045 -44.65457692 41.67271154 -42 43 C-42.938134 45.42351283 -43.91055611 47.81121194 -45.0234375 50.16015625 C-47.75964201 55.80821471 -47.75964201 55.80821471 -48 62 C-42.7800186 60.61824022 -39.94506278 57.32344255 -37 53 C-34.34588563 48.1571483 -32.14769501 43.11162805 -29.95629883 38.04760742 C-26.61438038 30.36700506 -23.04732545 22.9186947 -18.8125 15.6875 C-18.4211084 15.01340088 -18.0297168 14.33930176 -17.62646484 13.64477539 C-8.97530214 -0.74794185 -8.97530214 -0.74794185 0 0 Z " fill="#1E4C36" transform="translate(542,45)"/>
<path d="M0 0 C3.0390625 -0.29296875 3.0390625 -0.29296875 6.625 -0.1875 C7.81351563 -0.16042969 9.00203125 -0.13335937 10.2265625 -0.10546875 C11.14179687 -0.07066406 12.05703125 -0.03585938 13 0 C11.95443269 3.17250593 10.88545769 6.33666303 9.8125 9.5 C9.52052734 10.386875 9.22855469 11.27375 8.92773438 12.1875 C6.37979384 19.63954114 3.15876695 26.32630027 -2.5625 31.875 C-3.12066406 32.42929688 -3.67882812 32.98359375 -4.25390625 33.5546875 C-7.63506921 36.353413 -9.52943695 37 -14 37 C-14.33 34.36 -14.66 31.72 -15 29 C-15.99 29 -16.98 29 -18 29 C-18.12686691 34.51676893 -18.12686691 34.51676893 -17.3125 39.9375 C-16.85279294 44.44262921 -18.37368716 47.84090487 -20 52 C-20.31453125 52.86625 -20.6290625 53.7325 -20.953125 54.625 C-22.70025584 59.28401557 -24.29545239 63.52698662 -28 67 C-29.32 67 -30.64 67 -32 67 C-32.97425863 59.29614013 -31.29522906 52.47420182 -29.1875 45.125 C-28.92694824 44.20952393 -28.66639648 43.29404785 -28.39794922 42.35083008 C-26.08690189 34.60675682 -22.69152695 29.4720924 -17.375 23.5 C-11.68496866 16.99871838 -6.75175497 10.21286574 -2 3 C-1.34 2.01 -0.68 1.02 0 0 Z " fill="#F7F8F8" transform="translate(537,71)"/>
<path d="M0 0 C0.38218767 1.65614657 0.71395102 3.32457024 1 5 C0.67 5.33 0.34 5.66 0 6 C-0.36417153 12.55508753 0.68026729 18.58986968 2 25 C3.89957501 24.09111244 5.79450786 23.17251969 7.6875 22.25 C8.74324219 21.73953125 9.79898438 21.2290625 10.88671875 20.703125 C14.06259531 19.09723841 14.06259531 19.09723841 16.70703125 16.734375 C17.46371094 16.16203125 18.22039063 15.5896875 19 15 C19.99 15.33 20.98 15.66 22 16 C20.55672239 19.4821936 18.80083228 21.23689122 15.8125 23.5 C15.01457031 24.11746094 14.21664062 24.73492187 13.39453125 25.37109375 C11.24944485 26.8303124 9.40063809 27.65294147 7 28.5625 C3.69752613 30.7007389 3.69752613 30.7007389 3.453125 34.14453125 C3.31991831 36.59092343 3.25504188 39.04219429 3.265625 41.4921875 C2.89454665 46.39260452 1.1353362 49.60829756 -1.9375 53.375 C-6.81083945 55.96085358 -11.61136587 55.84848659 -17 55 C-20.25 52.9375 -20.25 52.9375 -22 50 C-22.64788866 45.96869278 -22.64872228 43.94813257 -20.32421875 40.55078125 C-17.83342676 37.81718936 -15.2732711 35.81098803 -12.25 33.6875 C-11.26515625 32.99011719 -10.2803125 32.29273438 -9.265625 31.57421875 C-8.14414062 30.79498047 -8.14414062 30.79498047 -7 30 C-7.144375 28.94941406 -7.28875 27.89882812 -7.4375 26.81640625 C-10.15519533 6.5723492 -10.15519533 6.5723492 -6.75 1.9375 C-4 0 -4 0 0 0 Z " fill="#1A4932" transform="translate(583,78)"/>
<path d="M0 0 C3.82759708 1.4353489 6.0113824 3.34985509 9 6.125 C8.01 7.445 7.02 8.765 6 10.125 C5.01 8.805 4.02 7.485 3 6.125 C-0.92667948 7.43389316 -1.21834551 8.8010726 -3.0625 12.4375 C-6.02438241 18.55970358 -7.30761463 24.39214913 -8 31.125 C-4.06164359 28.86789154 -1.12732048 26.43102451 2 23.125 C2.66 23.455 3.32 23.785 4 24.125 C3.505 24.62 3.505 24.62 3 25.125 C3.66 25.455 4.32 25.785 5 26.125 C5 29.755 5 33.385 5 37.125 C4.67 37.125 4.34 37.125 4 37.125 C3.505 32.67 3.505 32.67 3 28.125 C2.41992188 28.61871094 1.83984375 29.11242187 1.2421875 29.62109375 C-6.51669596 35.98440246 -6.51669596 35.98440246 -12 36.125 C-15.64775386 32.24190718 -16.58525633 29.41298182 -17 24.125 C-17.7734375 25.1459375 -17.7734375 25.1459375 -18.5625 26.1875 C-21 28.125 -21 28.125 -24.4375 28.3125 C-29.12982195 26.74839268 -30.63017896 24.30767953 -33 20.125 C-34.1446875 21.1459375 -34.1446875 21.1459375 -35.3125 22.1875 C-36.199375 22.826875 -37.08625 23.46625 -38 24.125 C-38.99 23.795 -39.98 23.465 -41 23.125 C-40.37351563 22.33996094 -39.74703125 21.55492188 -39.1015625 20.74609375 C-38.27548207 19.68533139 -37.44999262 18.62410861 -36.625 17.5625 C-35.81289062 16.52996094 -35.00078125 15.49742188 -34.1640625 14.43359375 C-31.91899685 11.00115584 -30.96911397 8.08301497 -30 4.125 C-28.75 2.125 -28.75 2.125 -27 1.125 C-23.8125 1.4375 -23.8125 1.4375 -21 2.125 C-19.99826419 4.75003059 -19.87165646 5.81353213 -20.9609375 8.45703125 C-21.42757812 9.27558594 -21.89421875 10.09414062 -22.375 10.9375 C-24.62937046 15.15273562 -25.69031257 18.3764594 -26 23.125 C-20.11843606 19.76410632 -15.98509435 16.60522309 -12.5625 10.6875 C-6.11001374 0.25458391 -6.11001374 0.25458391 0 0 Z " fill="#1C4B34" transform="translate(268,84.875)"/>
<path d="M0 0 C2.32222996 3.48334494 2.14440302 4.35645537 1.6875 8.375 C1.58824219 9.31085938 1.48898437 10.24671875 1.38671875 11.2109375 C1 14 1 14 0.39453125 16.7265625 C-0.23570666 19.02322046 -0.23570666 19.02322046 1 21 C-7.06976744 32.97674419 -7.06976744 32.97674419 -11 36 C-14.125 36.5625 -14.125 36.5625 -17 36 C-20.03824343 33.59035866 -20.25973366 30.92069764 -20.6875 27.25 C-20.80395353 25.83429039 -20.91214662 24.41777182 -21 23 C-25.7367351 29.28468775 -30.46693588 35.56597351 -35 42 C-35.33 41.34 -35.66 40.68 -36 40 C-36.66 39.67 -37.32 39.34 -38 39 C-37.443125 38.33355469 -36.88625 37.66710937 -36.3125 36.98046875 C-31.59992648 31.28876256 -27.11113743 25.5292706 -22.82421875 19.5078125 C-21.57824764 17.79493573 -20.2849586 16.11575034 -18.953125 14.46875 C-17.14019102 12.17720145 -15.60092263 9.85522706 -14.0625 7.375 C-10.33750905 1.76417404 -7.02429695 -0.93657293 0 0 Z " fill="#1D4C35" transform="translate(323,81)"/>
<path d="M0 0 C3 1.5625 3 1.5625 5 4 C5.36643738 8.76368593 3.90478718 11.52795045 1 15.125 C-1.72723034 18.10579514 -4.0348899 19.5509601 -7.75 21.0625 C-10.13451937 22.07646347 -10.13451937 22.07646347 -12 24 C-13.68378074 28.95042159 -14.43263056 33.81541721 -15 39 C-10.15880965 37.82673722 -6.95748481 36.61083353 -3.0625 33.375 C-2.29035156 32.74335937 -1.51820313 32.11171875 -0.72265625 31.4609375 C-0.15417969 30.97882813 0.41429687 30.49671875 1 30 C1.33 30.66 1.66 31.32 2 32 C0.92338719 33.4425402 -0.16160103 34.87883161 -1.25 36.3125 C-1.85328125 37.11300781 -2.4565625 37.91351563 -3.078125 38.73828125 C-5.99637142 42.17255905 -7.8674818 43.83221953 -12.375 44.5 C-17.32531677 43.81719769 -18.7932057 42.84815316 -22 39 C-22 35.87123963 -21.7990572 33.92069182 -21 31 C-20.73509766 29.97519531 -20.73509766 29.97519531 -20.46484375 28.9296875 C-20.01294756 27.27608219 -19.51131509 25.63620829 -19 24 C-19.66 24 -20.32 24 -21 24 C-21 24.66 -21 25.32 -21 26 C-21.66 26 -22.32 26 -23 26 C-23.49858424 21.28125626 -21.82215997 18.08403991 -19.5 14.125 C-18.9596814 13.19953369 -18.9596814 13.19953369 -18.40844727 12.25537109 C-14.1220886 5.1993223 -9.15750462 -1.90061417 0 0 Z " fill="#1C4A34" transform="translate(228,78)"/>
<path d="M0 0 C3.22018497 0.56003217 3.94120719 0.95700656 5.875 3.5 C8.58924935 16.68672807 0.01280406 28.47902885 -6.72265625 39.03125 C-8.59218584 41.84944005 -10.60644712 44.21992442 -13.125 46.5 C-13.785 45.84 -14.445 45.18 -15.125 44.5 C-16.115 45.49 -17.105 46.48 -18.125 47.5 C-16.18862713 39.4827369 -13.4861071 31.88014547 -10.52734375 24.19921875 C-9.30967743 20.98715746 -8.18369051 17.76725061 -7.125 14.5 C-10.95446843 15.95255699 -12.24550295 17.92895561 -14.125 21.5 C-14.785 20.18 -15.445 18.86 -16.125 17.5 C-14.903348 15.59931562 -13.67231206 13.70466117 -12.4375 11.8125 C-11.41076172 10.22888672 -11.41076172 10.22888672 -10.36328125 8.61328125 C-4.71293172 0.75406908 -4.71293172 0.75406908 0 0 Z " fill="#1F4D37" transform="translate(207.125,35.5)"/>
<path d="M0 0 C3.16115776 1.36983503 3.9927092 1.9890638 6 5 C6.046875 7.12109375 6.046875 7.12109375 5.75 9.4375 C5.66234375 10.19933594 5.5746875 10.96117188 5.484375 11.74609375 C4.5178394 16.24360217 2.56554616 18.694874 -0.875 21.6875 C-1.55304688 22.28949219 -2.23109375 22.89148438 -2.9296875 23.51171875 C-5.01065834 25.00766194 -6.49630826 25.5789756 -9 26 C-9.74588244 17.04941077 -7.29123251 9.33306151 -1.828125 2.140625 C-1.22484375 1.43421875 -0.6215625 0.7278125 0 0 Z " fill="#F5F7F6" transform="translate(269,90)"/>
<path d="M0 0 C0.99 0.33 1.98 0.66 3 1 C2.12196609 10.48276618 0.021794 19.38829339 -6 27 C-9.12860495 28.56430248 -11.55602925 28.35627284 -15 28 C-17.43674326 25.86031555 -18.82468616 24.16460412 -19.31591797 20.90136719 C-19.39350691 18.48444629 -19.34915722 16.10350371 -19.25 13.6875 C-19.23195313 12.85154297 -19.21390625 12.01558594 -19.1953125 11.15429688 C-19.14841126 9.10236772 -19.07667411 7.05103244 -19 5 C-18.67 5 -18.34 5 -18 5 C-17.67 7.31 -17.34 9.62 -17 12 C-16.01 11.01 -15.02 10.02 -14 9 C-12.90348177 12.41139003 -13.05784527 15.20655581 -13.4375 18.75 C-13.53933594 19.73484375 -13.64117187 20.7196875 -13.74609375 21.734375 C-13.82988281 22.48203125 -13.91367187 23.2296875 -14 24 C-10.99010412 23.08394473 -9.36073385 22.51342543 -7.5234375 19.8984375 C-7.14445312 19.06570312 -6.76546875 18.23296875 -6.375 17.375 C-5.96507812 16.48296875 -5.55515625 15.5909375 -5.1328125 14.671875 C-3.09217748 9.85879102 -1.21271873 5.09791022 0 0 Z " fill="#194831" transform="translate(519,114)"/>
<path d="M0 0 C0.99 0.33 1.98 0.66 3 1 C3.51298335 7.18786167 2.08726833 10.62143336 -1 15.75 C-1.40428223 16.44375732 -1.80856445 17.13751465 -2.22509766 17.85229492 C-6.44788246 24.9806127 -10.9558738 32.2710583 -17 38 C-13.98683222 25.28654647 -9.48436682 9.48436682 0 0 Z " fill="#EBEFED" transform="translate(302,54)"/>
<path d="M0 0 C0.99 0 1.98 0 3 0 C2.47976031 5.98275639 1.1693367 11.82637871 -2 17 C-5.25 18.125 -5.25 18.125 -8 18 C-8 18.66 -8 19.32 -8 20 C-7.01 20 -6.02 20 -5 20 C-6.56716386 24.64836739 -9.09034343 28.25571235 -11.9375 32.1875 C-12.38029297 32.81591797 -12.82308594 33.44433594 -13.27929688 34.09179688 C-15.35689579 36.98681176 -17.00723424 39.00482282 -20 41 C-17.69313839 33.44303957 -14.56046831 26.48228333 -11.125 19.375 C-10.60808594 18.281875 -10.09117187 17.18875 -9.55859375 16.0625 C-6.80246809 10.32809246 -4.12173277 4.87621945 0 0 Z " fill="#EEF1F0" transform="translate(537,51)"/>
<path d="M0 0 C-0.4483772 6.71792731 -2.38616408 11.69564064 -5.375 17.6875 C-5.77460938 18.51572266 -6.17421875 19.34394531 -6.5859375 20.19726562 C-8.55770391 24.24781866 -10.60555843 28.17950596 -13 32 C-13.52980469 32.88300781 -14.05960938 33.76601562 -14.60546875 34.67578125 C-16.80273438 38.33789062 -16.80273438 38.33789062 -19 42 C-20 40 -20 40 -19.49023438 37.88378906 C-19.19439453 37.01979492 -18.89855469 36.15580078 -18.59375 35.265625 C-18.26528076 34.30495117 -17.93681152 33.34427734 -17.59838867 32.35449219 C-17.23592041 31.33000977 -16.87345215 30.30552734 -16.5 29.25 C-16.13559814 28.21262695 -15.77119629 27.17525391 -15.39575195 26.10644531 C-6.02530127 0 -6.02530127 0 0 0 Z " fill="#EDF1EF" transform="translate(209,41)"/>
<path d="M0 0 C1.16447213 4.59917564 1.81841622 8.35607146 -0.3515625 12.71484375 C-2.13758035 15.241869 -4.01160515 17.62986689 -6 20 C-7.1446875 21.546875 -7.1446875 21.546875 -8.3125 23.125 C-8.869375 23.74375 -9.42625 24.3625 -10 25 C-10.66 25 -11.32 25 -12 25 C-12.97646958 16.86275346 -9.70947253 10.10305324 -6 3 C-3.83976773 0.25924019 -3.60750716 0 0 0 Z " fill="#F0F3F2" transform="translate(323,85)"/>
<path d="M0 0 C0.33 0.99 0.66 1.98 1 3 C1.66 3.33 2.32 3.66 3 4 C-11.29355861 27.1467793 -11.29355861 27.1467793 -17 30 C-17.66 29.34 -18.32 28.68 -19 28 C-17.02450368 24.54744029 -14.87592655 21.53659454 -12.3125 18.5 C-7.57782233 12.68486713 -3.80120297 6.44991355 0 0 Z " fill="#204E38" transform="translate(204,101)"/>
<path d="M0 0 C2.375 -0.125 2.375 -0.125 5 0 C7 2 7 2 7.375 4.25 C6.87665592 7.90452323 5.11321868 10.02828624 3 13 C3 13.66 3 14.32 3 15 C1.25 16.6875 1.25 16.6875 -1 18 C-3.25 17.6875 -3.25 17.6875 -5 17 C-4.1302693 13.3203701 -2.9427882 9.79294154 -1.71875 6.21875 C-1.05170334 4.15960598 -0.49770666 2.10568202 0 0 Z " fill="#1F4D37" transform="translate(499,64)"/>
<path d="M0 0 C2.97 0.495 2.97 0.495 6 1 C6.75 3.1875 6.75 3.1875 7 6 C5.125 8.5625 5.125 8.5625 3 11 C2.22166466 13.18214568 2.22166466 13.18214568 2 15 C1.34 15 0.68 15 0 15 C-0.33 15.99 -0.66 16.98 -1 18 C-2.32 18 -3.64 18 -5 18 C-5.39839753 13.48482804 -4.06079662 10.96307043 -2 7 C-1.22940118 4.68353325 -0.61488915 2.36495828 0 0 Z " fill="#24513B" transform="translate(248,64)"/>
<path d="M0 0 C0.66 0 1.32 0 2 0 C2.55165303 5.65444353 1.1465863 8.4549309 -2 13 C-3.9375 14.5 -3.9375 14.5 -6 15 C-8.75 14.625 -8.75 14.625 -11 14 C-10.51594564 9.68819268 -9.37995134 7.9410446 -6.0625 5.1875 C-5.35222656 4.58292969 -4.64195312 3.97835937 -3.91015625 3.35546875 C-2 2 -2 2 0 2 C0 1.34 0 0.68 0 0 Z " fill="#EDF1EF" transform="translate(576,113)"/>
<path d="M0 0 C0.99 0.33 1.98 0.66 3 1 C0.525 5.455 0.525 5.455 -2 10 C2.29 10 6.58 10 11 10 C10.67 10.99 10.34 11.98 10 13 C4.94997778 14.03590199 0.12583611 14.10251672 -5 14 C-5.33 15.98 -5.66 17.96 -6 20 C-6.99 20.33 -7.98 20.66 -9 21 C-8.38367054 16.04001528 -6.20164371 12.06328034 -3.9375 7.6875 C-3.37192383 6.57665039 -3.37192383 6.57665039 -2.79492188 5.44335938 C-1.86871843 3.62612478 -0.93509371 1.81267596 0 0 Z " fill="#466C5A" transform="translate(404,57)"/>
<path d="M0 0 C0.33 0 0.66 0 1 0 C2.33011028 5.30515249 2.33011028 5.30515249 0.8828125 8.3515625 C0.30273438 9.10179688 -0.27734375 9.85203125 -0.875 10.625 C-1.51308594 11.470625 -2.15117187 12.31625 -2.80859375 13.1875 C-3.89333984 14.5796875 -3.89333984 14.5796875 -5 16 C-5.82693281 17.10213552 -6.65106524 18.20637669 -7.47265625 19.3125 C-9.63337671 22.21982123 -11.81233375 25.11287583 -14 28 C-14.66 27.67 -15.32 27.34 -16 27 C-14.51708597 22.71778837 -12.32520988 19.4206282 -9.6875 15.75 C-6.08750727 10.67672381 -2.84912772 5.54076596 0 0 Z " fill="#25523C" transform="translate(303,64)"/>
<path d="M0 0 C0.66 0 1.32 0 2 0 C2 0.99 2 1.98 2 3 C6.29 3.33 10.58 3.66 15 4 C15 4.66 15 5.32 15 6 C9.67067568 7.70084819 4.56890517 8.52013969 -1 9 C-1.268125 9.969375 -1.53625 10.93875 -1.8125 11.9375 C-2.204375 12.948125 -2.59625 13.95875 -3 15 C-3.99 15.33 -4.98 15.66 -6 16 C-5.37183502 12.05050296 -4.1354471 8.80107972 -2.4375 5.1875 C-1.98246094 4.21167969 -1.52742187 3.23585938 -1.05859375 2.23046875 C-0.70925781 1.49441406 -0.35992188 0.75835937 0 0 Z " fill="#1F4D37" transform="translate(561,63)"/>
<path d="M0 0 C0.99 0.66 1.98 1.32 3 2 C2.33613281 2.95519531 1.67226563 3.91039062 0.98828125 4.89453125 C-4.112744 12.33007108 -8.66895762 19.56720323 -12 28 C-13.21875 26.484375 -13.21875 26.484375 -14 24 C-12.96560642 21.22157074 -11.89098715 18.84044423 -10.5 16.25 C-9.94602539 15.18072266 -9.94602539 15.18072266 -9.38085938 14.08984375 C-6.68685264 8.9996134 -3.69385423 4.43262508 0 0 Z " fill="#325C47" transform="translate(454,59)"/>
<path d="M0 0 C0.33 0.66 0.66 1.32 1 2 C3.02463255 2.65213292 3.02463255 2.65213292 5 3 C4.01 3.33 3.02 3.66 2 4 C0.22270511 6.87424693 0.22270511 6.87424693 -1.4375 10.3125 C-3.55830365 14.54936278 -5.44538695 17.83600377 -9 21 C-10.32 20.34 -11.64 19.68 -13 19 C-12.48050781 18.38253906 -11.96101563 17.76507813 -11.42578125 17.12890625 C-6.94528543 11.68771262 -3.16551287 6.30058811 0 0 Z " fill="#1F4D37" transform="translate(349,93)"/>
<path d="M0 0 C0.33 0 0.66 0 1 0 C0.74978339 7.00606498 -1.22747997 12.65310884 -3.76269531 19.09765625 C-5.68483324 24.02094512 -7.06848023 28.78348928 -8 34 C-8.99 34 -9.98 34 -11 34 C-10.39442463 27.97698007 -8.67607158 22.67858661 -6.625 17 C-6.32078125 16.13632813 -6.0165625 15.27265625 -5.703125 14.3828125 C-3.96857691 9.50532257 -2.0964588 4.73310944 0 0 Z " fill="#658475" transform="translate(553,81)"/>
<path d="M0 0 C0.99 0.33 1.98 0.66 3 1 C1.54403414 4.53480483 -0.29147443 6.31988133 -3.3125 8.625 C-4.45138672 9.51058594 -4.45138672 9.51058594 -5.61328125 10.4140625 C-8.00887664 12.00589839 -10.29853981 13.03416822 -13 14 C-12.84375 11.23828125 -12.84375 11.23828125 -12 8 C-9.53125 5.91796875 -9.53125 5.91796875 -6.5 4.1875 C-5.4996875 3.60355469 -4.499375 3.01960938 -3.46875 2.41796875 C-2.6540625 1.95003906 -1.839375 1.48210937 -1 1 C-0.67 0.67 -0.34 0.34 0 0 Z " fill="#1E4C36" transform="translate(602,93)"/>
<path d="M0 0 C0.65234375 1.74609375 0.65234375 1.74609375 1 4 C0.06640625 5.97265625 0.06640625 5.97265625 -1.4375 8.0625 C-2.25927734 9.22265625 -2.25927734 9.22265625 -3.09765625 10.40625 C-4.03931641 11.69015625 -4.03931641 11.69015625 -5 13 C-5.72058594 14.0003125 -6.44117188 15.000625 -7.18359375 16.03125 C-9.11042814 18.6965325 -11.04975393 21.35182322 -13 24 C-13.33 23.34 -13.66 22.68 -14 22 C-14.66 21.67 -15.32 21.34 -16 21 C-15.43152344 20.32195312 -14.86304688 19.64390625 -14.27734375 18.9453125 C-9.19949544 12.82476746 -4.44756418 6.59269159 0 0 Z " fill="#23503A" transform="translate(301,99)"/>
<path d="M0 0 C0.99 0.33 1.98 0.66 3 1 C3.33949303 4.64955006 3.32346394 6.49683387 1.3125 9.625 C-1.00205894 12.00211459 -3.29492301 14.07797161 -6 16 C-6.66 16 -7.32 16 -8 16 C-6.42986223 10.03347646 -3.24970218 5.17090975 0 0 Z " fill="#E6EBE9" transform="translate(225,81)"/>
<path d="M0 0 C0.33 0.66 0.66 1.32 1 2 C1.66 2 2.32 2 3 2 C2.45018084 8.04801071 1.09570426 13.30601106 -1 19 C-2.32 19 -3.64 19 -5 19 C-4.35561067 16.39546825 -3.7095496 13.7913709 -3.0625 11.1875 C-2.88009766 10.44951172 -2.69769531 9.71152344 -2.50976562 8.95117188 C-1.7577385 5.92939016 -0.98514427 2.95543282 0 0 Z " fill="#446A58" transform="translate(126,88)"/>
<path d="M0 0 C0.66 0 1.32 0 2 0 C1.87210139 6.13913311 -0.18213527 8.93600433 -4.30859375 13.3984375 C-6 15 -6 15 -8 16 C-8.99 15.01 -9.98 14.02 -11 13 C-10.38125 12.7525 -9.7625 12.505 -9.125 12.25 C-6.84456841 11.18261901 -6.84456841 11.18261901 -6.0625 8.9375 C-5.711875 8.298125 -5.36125 7.65875 -5 7 C-2.375 6.25 -2.375 6.25 0 6 C0 4.02 0 2.04 0 0 Z " fill="#25523C" transform="translate(231,82)"/>
<path d="M0 0 C0.33 0 0.66 0 1 0 C0.37065501 5.72550442 -1.06140233 10.91651336 -2.875 16.375 C-3.25978516 17.60283203 -3.25978516 17.60283203 -3.65234375 18.85546875 C-3.90886719 19.63277344 -4.16539062 20.41007812 -4.4296875 21.2109375 C-4.65897949 21.91524902 -4.88827148 22.61956055 -5.12451172 23.34521484 C-6 25 -6 25 -9 26 C-7.91077641 19.90034791 -6.1121961 14.28373884 -3.9375 8.5 C-3.6679248 7.78134766 -3.39834961 7.06269531 -3.12060547 6.32226562 C-1.13708955 1.13708955 -1.13708955 1.13708955 0 0 Z " fill="#496E5C" transform="translate(393,81)"/>
<path d="M0 0 C-1.20366862 2.7356105 -2.7175978 5.20904625 -4.375 7.6875 C-4.77460938 8.28949219 -5.17421875 8.89148438 -5.5859375 9.51171875 C-7.32530615 11.34238023 -8.57684392 11.45313987 -11 12 C-13.7295585 14.47906969 -13.7295585 14.47906969 -16 17 C-16.66 16.67 -17.32 16.34 -18 16 C-4.76595745 0 -4.76595745 0 0 0 Z " fill="#26523D" transform="translate(454,118)"/>
<path d="M0 0 C0.99 0.33 1.98 0.66 3 1 C2.41463247 4.66060821 0.916761 6.54535164 -1.5625 9.25 C-2.20316406 9.95640625 -2.84382812 10.6628125 -3.50390625 11.390625 C-4.24447266 12.18726563 -4.24447266 12.18726563 -5 13 C-5.99 12.34 -6.98 11.68 -8 11 C-5.71461395 6.91036181 -3.04293074 3.53637896 0 0 Z " fill="#27533E" transform="translate(193,118)"/>
<path d="M0 0 C0.33 0 0.66 0 1 0 C1.33 2.31 1.66 4.62 2 7 C2.99 6.01 3.98 5.02 5 4 C6.03115279 7.26913624 5.9638984 9.86041348 5.5625 13.25 C5.46066406 14.14203125 5.35882813 15.0340625 5.25390625 15.953125 C5.17011719 16.62859375 5.08632813 17.3040625 5 18 C4.67 18 4.34 18 4 18 C4 16.35 4 14.7 4 13 C3.34 13 2.68 13 2 13 C1.67 14.65 1.34 16.3 1 18 C0.67 18 0.34 18 0 18 C0 12.06 0 6.12 0 0 Z " fill="#446A58" transform="translate(500,119)"/>
<path d="M0 0 C0.66 0.66 1.32 1.32 2 2 C1.1890436 4.29222362 0.37630612 6.58378828 -0.4375 8.875 C-0.66759766 9.52597656 -0.89769531 10.17695312 -1.13476562 10.84765625 C-2.88671875 15.7734375 -2.88671875 15.7734375 -4 18 C-4.66 18 -5.32 18 -6 18 C-6.33 18.99 -6.66 19.98 -7 21 C-8 19 -8 19 -7.37915039 17.02880859 C-7.03875732 16.24328613 -6.69836426 15.45776367 -6.34765625 14.6484375 C-5.98349609 13.79765625 -5.61933594 12.946875 -5.24414062 12.0703125 C-4.65922852 10.73613281 -4.65922852 10.73613281 -4.0625 9.375 C-3.48338867 8.02921875 -3.48338867 8.02921875 -2.89257812 6.65625 C-1.93529275 4.43440246 -0.97085723 2.21594292 0 0 Z " fill="#4A6F5D" transform="translate(482,83)"/>
<path d="M0 0 C0.99 0.33 1.98 0.66 3 1 C2.48041715 5.37934119 1.94324258 9.68803391 1 14 C-0.66666667 14 -2.33333333 14 -4 14 C-3.79503906 13.32453125 -3.59007812 12.6490625 -3.37890625 11.953125 C-3.10949219 11.06109375 -2.84007812 10.1690625 -2.5625 9.25 C-2.16224609 7.92742187 -2.16224609 7.92742187 -1.75390625 6.578125 C-1.11531506 4.39434165 -0.53224167 2.21164502 0 0 Z " fill="#24513C" transform="translate(519,114)"/>
<path d="M0 0 C0.66 0 1.32 0 2 0 C2 0.99 2 1.98 2 3 C1.34 3 0.68 3 0 3 C-0.33 4.32 -0.66 5.64 -1 7 C1.97 7 4.94 7 8 7 C8 7.33 8 7.66 8 8 C3.545 8.495 3.545 8.495 -1 9 C-1.268125 9.969375 -1.53625 10.93875 -1.8125 11.9375 C-2.204375 12.948125 -2.59625 13.95875 -3 15 C-3.99 15.33 -4.98 15.66 -6 16 C-5.37183502 12.05050296 -4.1354471 8.80107972 -2.4375 5.1875 C-1.98246094 4.21167969 -1.52742187 3.23585938 -1.05859375 2.23046875 C-0.70925781 1.49441406 -0.35992188 0.75835937 0 0 Z " fill="#517463" transform="translate(561,63)"/>
<path d="M0 0 C1.70884005 1.62339805 3.37446717 3.29319053 5 5 C5 5.66 5 6.32 5 7 C3.25 8.6875 3.25 8.6875 1 10 C-1.25 9.6875 -1.25 9.6875 -3 9 C-2.30058404 5.85262818 -1.23921302 2.97411124 0 0 Z " fill="#2D5843" transform="translate(497,72)"/>
<path d="M0 0 C0.99 0.33 1.98 0.66 3 1 C1.60667426 4.36720387 0.0210714 5.9859524 -3 8 C-4.32 7.01 -5.64 6.02 -7 5 C-5.90554162 4.13342884 -4.79902219 3.28207276 -3.6875 2.4375 C-3.07261719 1.96183594 -2.45773437 1.48617187 -1.82421875 0.99609375 C-1.22222656 0.66738281 -0.62023437 0.33867188 0 0 Z " fill="#27543E" transform="translate(602,93)"/>
<path d="M0 0 C4.29 0 8.58 0 13 0 C12.67 0.99 12.34 1.98 12 3 C8.37 3 4.74 3 1 3 C0.67 2.01 0.34 1.02 0 0 Z " fill="#214E38" transform="translate(402,67)"/>
<path d="M0 0 C1.23922223 3.71766668 0.57018942 5.43889537 -0.4375 9.1875 C-0.72496094 10.27417969 -1.01242187 11.36085938 -1.30859375 12.48046875 C-1.53675781 13.31191406 -1.76492188 14.14335938 -2 15 C-2.99 15 -3.98 15 -5 15 C-4.45144652 10.428721 -3.58255197 6.32564205 -2 2 C-1.34 2 -0.68 2 0 2 C0 1.34 0 0.68 0 0 Z " fill="#446A58" transform="translate(547,100)"/>
<path d="M0 0 C0.75 1.75 0.75 1.75 1 4 C-0.625 6.3125 -0.625 6.3125 -3 8 C-5.75 7.75 -5.75 7.75 -8 7 C-8 6.01 -8 5.02 -8 4 C-6.865625 3.525625 -5.73125 3.05125 -4.5625 2.5625 C-1.24259834 1.36377917 -1.24259834 1.36377917 0 0 Z " fill="#23503A" transform="translate(514,134)"/>
<path d="M0 0 C0.66 0 1.32 0 2 0 C1.55520961 5.04095775 -0.66154153 7.41115715 -4 11 C-4.33 11 -4.66 11 -5 11 C-5.38613383 8.37428995 -5.38493778 6.6156121 -3.95703125 4.33203125 C-2.625 2.6875 -2.625 2.6875 0 0 Z " fill="#204D38" transform="translate(570,94)"/>
<path d="M0 0 C0.66 0.99 1.32 1.98 2 3 C-0.97 5.475 -0.97 5.475 -4 8 C-4.99 7.01 -5.98 6.02 -7 5 C-2.25 1.125 -2.25 1.125 0 0 Z " fill="#28543F" transform="translate(368,114)"/>
<path d="M0 0 C0.99 0.33 1.98 0.66 3 1 C-0.38164251 5.71014493 -0.38164251 5.71014493 -3 6.9375 C-5.49211713 7.01537866 -6.83095136 6.16134479 -9 5 C-8.43410156 4.72285156 -7.86820313 4.44570312 -7.28515625 4.16015625 C-6.55167969 3.79792969 -5.81820312 3.43570313 -5.0625 3.0625 C-3.96615234 2.52302734 -3.96615234 2.52302734 -2.84765625 1.97265625 C-1.03750973 1.13628173 -1.03750973 1.13628173 0 0 Z " fill="#416755" transform="translate(581,126)"/>
<path d="M0 0 C1.1484375 1.734375 1.1484375 1.734375 2 4 C1.1015625 6.140625 1.1015625 6.140625 -0.375 8.25 C-0.85710937 8.95640625 -1.33921875 9.6628125 -1.8359375 10.390625 C-2.22007812 10.92171875 -2.60421875 11.4528125 -3 12 C-4.1484375 10.265625 -4.1484375 10.265625 -5 8 C-4.1015625 5.859375 -4.1015625 5.859375 -2.625 3.75 C-2.14289063 3.04359375 -1.66078125 2.3371875 -1.1640625 1.609375 C-0.77992188 1.07828125 -0.39578125 0.5471875 0 0 Z " fill="#496E5C" transform="translate(196,45)"/>
<path d="M0 0 C0.66 0.33 1.32 0.66 2 1 C1.67 1.33 1.34 1.66 1 2 C1.66 2.33 2.32 2.66 3 3 C3 6.63 3 10.26 3 14 C2.67 14 2.34 14 2 14 C1.67 11.03 1.34 8.06 1 5 C-0.32 5.33 -1.64 5.66 -3 6 C-3.66 5.67 -4.32 5.34 -5 5 C-3.35 3.35 -1.7 1.7 0 0 Z " fill="#5C7D6D" transform="translate(270,108)"/>
<path d="M0 0 C1.25224024 3.75672071 0.61855923 5.78460577 -0.25 9.625 C-0.62898438 11.37683594 -0.62898438 11.37683594 -1.015625 13.1640625 C-1.34046875 14.09992188 -1.6653125 15.03578125 -2 16 C-2.99 16.33 -3.98 16.66 -5 17 C-3.83348574 11.07136283 -2.24480642 5.61201606 0 0 Z " fill="#7A9588" transform="translate(389,90)"/>
<path d="M0 0 C0.33 0.66 0.66 1.32 1 2 C3.02463255 2.65213292 3.02463255 2.65213292 5 3 C4.01 3.33 3.02 3.66 2 4 C0.29144978 7.00007271 0.29144978 7.00007271 -1 10 C-1.99 9.01 -2.98 8.02 -4 7 C-2.68 4.69 -1.36 2.38 0 0 Z " fill="#2C5743" transform="translate(349,93)"/>
<path d="M0 0 C0.99 0.33 1.98 0.66 3 1 C1.68 3.31 0.36 5.62 -1 8 C-1.66 8 -2.32 8 -3 8 C-3.66 9.32 -4.32 10.64 -5 12 C-4.42365861 7.24518354 -2.44931479 4.02951788 0 0 Z " fill="#3D6552" transform="translate(404,57)"/>
<path d="M0 0 C1 2 1 2 0.22265625 4.3828125 C-0.16019531 5.28773437 -0.54304688 6.19265625 -0.9375 7.125 C-1.31777344 8.03507812 -1.69804687 8.94515625 -2.08984375 9.8828125 C-2.54037109 10.93082031 -2.54037109 10.93082031 -3 12 C-3.99 12 -4.98 12 -6 12 C-6.99 12.495 -6.99 12.495 -8 13 C-6.53181332 9.89257577 -4.79975 7.09528261 -2.875 4.25 C-2.33617187 3.45078125 -1.79734375 2.6515625 -1.2421875 1.828125 C-0.62730469 0.92320313 -0.62730469 0.92320313 0 0 Z " fill="#CFD9D4" transform="translate(471,90)"/>
<path d="M0 0 C0.99 0 1.98 0 3 0 C2.54917531 1.46067199 2.08906463 2.91848032 1.625 4.375 C1.36976563 5.18710938 1.11453125 5.99921875 0.8515625 6.8359375 C0 9 0 9 -2 11 C-2.95465783 8.83032311 -3.14401212 7.43671207 -2.3984375 5.17578125 C-1.64129615 3.4315257 -0.82390802 1.71372869 0 0 Z " fill="#517564" transform="translate(443,76)"/>
<path d="M0 0 C0.33 0 0.66 0 1 0 C1.83861979 5.36716665 -1.07929595 8.79627239 -4 13 C-5 11 -5 11 -4.2578125 8.65234375 C-3.88398438 7.75644531 -3.51015625 6.86054687 -3.125 5.9375 C-2.75632813 5.03902344 -2.38765625 4.14054687 -2.0078125 3.21484375 C-1 1 -1 1 0 0 Z " fill="#D9E1DD" transform="translate(194,70)"/>
<path d="M0 0 C1.45606519 4.52092968 0.27032841 7.51648796 -1 12 C-1.33 11.34 -1.66 10.68 -2 10 C-2.66 10 -3.32 10 -4 10 C-3.34 7.36 -2.68 4.72 -2 2 C-1.34 2 -0.68 2 0 2 C0 1.34 0 0.68 0 0 Z " fill="#335D49" transform="translate(385,105)"/>
<path d="M0 0 C0.66 0 1.32 0 2 0 C1.71682074 1.60568666 1.42312209 3.20952047 1.125 4.8125 C0.96257812 5.70582031 0.80015625 6.59914063 0.6328125 7.51953125 C0 10 0 10 -2 13 C-3.19876651 7.55106131 -2.91360308 4.77830905 0 0 Z " fill="#8FA69B" transform="translate(207,102)"/>
<path d="M0 0 C0.99 0.33 1.98 0.66 3 1 C1.70700306 3.88437779 0.34058637 5.87219421 -2 8 C-2 7.34 -2 6.68 -2 6 C-2.66 5.67 -3.32 5.34 -4 5 C-2.68 3.35 -1.36 1.7 0 0 Z " fill="#2F5A45" transform="translate(289,115)"/>
<path d="M0 0 C0.33 0.99 0.66 1.98 1 3 C1.66 3 2.32 3 3 3 C2.34 6.3 1.68 9.6 1 13 C-0.98983228 9.02033543 -1.22400716 8.32324868 -0.625 4.25 C-0.51414063 3.45078125 -0.40328125 2.6515625 -0.2890625 1.828125 C-0.19367188 1.22484375 -0.09828125 0.6215625 0 0 Z " fill="#436956" transform="translate(174,98)"/>
<path d="M0 0 C1 4 1 4 -0.9375 7.25 C-1.618125 8.1575 -2.29875 9.065 -3 10 C-3.66 9.01 -4.32 8.02 -5 7 C-3.35 4.69 -1.7 2.38 0 0 Z " fill="#2F5945" transform="translate(301,99)"/>
<path d="M0 0 C0.66 0.66 1.32 1.32 2 2 C1.625 5.125 1.625 5.125 1 8 C0.01 8 -0.98 8 -2 8 C-2 5.69 -2 3.38 -2 1 C-1.34 0.67 -0.68 0.34 0 0 Z " fill="#12432B" transform="translate(230,80)"/>
<path d="M0 0 C0.99 0.66 1.98 1.32 3 2 C1.35 4.31 -0.3 6.62 -2 9 C-2.66 7.68 -3.32 6.36 -4 5 C-2.68 3.35 -1.36 1.7 0 0 Z " fill="#496E5C" transform="translate(454,59)"/>
<path d="M0 0 C0.66 0.99 1.32 1.98 2 3 C0.68 5.31 -0.64 7.62 -2 10 C-2.66 9.67 -3.32 9.34 -4 9 C-2.94124926 5.59687262 -1.99097846 2.98646769 0 0 Z " fill="#345E4A" transform="translate(566,54)"/>
<path d="M0 0 C0.66 0.33 1.32 0.66 2 1 C1.67 2.65 1.34 4.3 1 6 C-1.97 5.505 -1.97 5.505 -5 5 C-3.35 3.35 -1.7 1.7 0 0 Z " fill="#295540" transform="translate(534,102)"/>
<path d="M0 0 C0.99 0 1.98 0 3 0 C2.42655063 2.86724686 2.1385485 3.8614515 0 6 C-0.99 5.34 -1.98 4.68 -3 4 C-1.6875 2 -1.6875 2 0 0 Z " fill="#335D48" transform="translate(409,94)"/>
<path d="M0 0 C0.33 0.66 0.66 1.32 1 2 C1.66 2 2.32 2 3 2 C3 1.34 3 0.68 3 0 C3.66 0 4.32 0 5 0 C4.8125 1.875 4.8125 1.875 4 4 C1.4375 5.25 1.4375 5.25 -1 6 C-0.67 4.02 -0.34 2.04 0 0 Z " fill="#3E6552" transform="translate(278,84)"/>
<path d="M0 0 C0.75 1.75 0.75 1.75 1 4 C-0.9375 6.25 -0.9375 6.25 -3 8 C-3 7.34 -3 6.68 -3 6 C-3.99 6 -4.98 6 -6 6 C-6 5.34 -6 4.68 -6 4 C-4.02 3.67 -2.04 3.34 0 3 C0 2.01 0 1.02 0 0 Z " fill="#335D49" transform="translate(535,65)"/>
<path d="M0 0 C0.99 0 1.98 0 3 0 C2.67 1.65 2.34 3.3 2 5 C0.35 4.67 -1.3 4.34 -3 4 C-1.6875 2 -1.6875 2 0 0 Z " fill="#27533E" transform="translate(339,109)"/>
<path d="M0 0 C0.33 0.66 0.66 1.32 1 2 C1.66 2 2.32 2 3 2 C3.33 1.34 3.66 0.68 4 0 C4.33 1.65 4.66 3.3 5 5 C4.01 5.33 3.02 5.66 2 6 C0 3 0 3 0 0 Z " fill="#27533E" transform="translate(561,125)"/>
<path d="M0 0 C0.99 0.33 1.98 0.66 3 1 C2.34 2.32 1.68 3.64 1 5 C-0.32 4.67 -1.64 4.34 -3 4 C-2.01 2.68 -1.02 1.36 0 0 Z " fill="#2B5641" transform="translate(230,104)"/>
<path d="M0 0 C4.75 0.75 4.75 0.75 7 3 C6.01 3.99 5.02 4.98 4 6 C2.68 4.02 1.36 2.04 0 0 Z " fill="#26533E" transform="translate(270,89)"/>
<path d="M0 0 C1.65 0 3.3 0 5 0 C4.34 1.32 3.68 2.64 3 4 C1.68 4 0.36 4 -1 4 C-0.67 2.68 -0.34 1.36 0 0 Z " fill="#28543F" transform="translate(537,61)"/>
</svg>
