<?xml version="1.0" encoding="UTF-8"?>
<svg version="1.1" xmlns="http://www.w3.org/2000/svg" width="455" height="185">
<path d="M0 0 C150.15 0 300.3 0 455 0 C455 61.05 455 122.1 455 185 C304.85 185 154.7 185 0 185 C0 123.95 0 62.9 0 0 Z " fill="#FEFEFE" transform="translate(0,0)"/>
<path d="M0 0 C2.14541591 1.77551661 2.86177445 3.17401806 3.3203125 5.9140625 C4.24701238 23.39780019 -11.16861386 40.52970674 -20.828125 53.9609375 C-28.99011537 65.38185208 -29.2071496 78.39717651 -29 92 C-16.20190584 87.89747504 -8.17198664 68.37863324 -1.921875 57.3515625 C1.76138997 50.86581332 4.73188477 46.17874349 11 42 C14.54359483 41.67785502 17.12780596 41.6421768 20.4375 43 C22.40832712 45.52265871 22.7419356 47.63183818 22.578125 50.80859375 C21.07979859 56.48806075 16.11286966 60.55531987 11.25 63.5 C8 65 8 65 5 65 C5.04125 65.78375 5.0825 66.5675 5.125 67.375 C4.9637033 72.0526044 4.00914339 76.44083432 3 81 C12.88464277 79.18445337 17.69235701 71.55556265 23.2734375 63.72265625 C25.48787809 60.23065377 26.73786388 56.9266457 28 53 C28.66 52.01 29.32 51.02 30 50 C32.31 50.33 34.62 50.66 37 51 C37.6875 52.75 37.6875 52.75 38 55 C37.03126968 56.35622245 36.02323436 57.68441297 35 59 C33.08515856 63.15597872 32 66.37794561 32 71 C37.96931103 68.95337907 41.46447328 66.28027684 44.375 60.6875 C46.83758588 56.04706473 49.52539558 51.90992398 54 49 C57.6875 48.8125 57.6875 48.8125 61 50 C62.37403487 51.29134958 63.7151049 52.61992749 65 54 C65.4021875 53.01386719 65.4021875 53.01386719 65.8125 52.0078125 C67.1898985 48.66399641 68.59209353 45.33103986 70 42 C70.30534668 41.27200195 70.61069336 40.54400391 70.92529297 39.79394531 C79.76762163 18.82158558 79.76762163 18.82158558 87 14 C89.15625 13.69921875 89.15625 13.69921875 91.5 13.6875 C92.2734375 13.67074219 93.046875 13.65398438 93.84375 13.63671875 C96 14 96 14 97.78125 15.08203125 C99.73379859 18.15479202 99.38228192 20.42345859 99 24 C98.08694183 26.74833326 96.84851171 29.25364249 95.5 31.8125 C95.1383374 32.51536133 94.7766748 33.21822266 94.40405273 33.94238281 C91.24960624 39.88901001 87.39681468 44.91284432 83 50 C76.68397521 57.49204225 72.6531036 63.11201143 72 73 C71.89429688 74.25425781 71.78859375 75.50851563 71.6796875 76.80078125 C71.41325156 80.1995474 71.1888256 83.59617012 71 87 C75.39555358 83.59535156 78.63374355 80.12320291 81.75 75.5 C82.60983714 74.25892989 83.47187704 73.01938345 84.3359375 71.78125 C84.77260742 71.15476562 85.20927734 70.52828125 85.65917969 69.8828125 C88.56558053 65.80157374 91.68479711 61.88130141 94.7734375 57.9375 C96.29453254 55.93072198 97.74852112 53.87175466 99.140625 51.7734375 C101.17300089 48.74195246 102.89608746 46.92146967 106 45 C109.0625 44.5 109.0625 44.5 112 45 C114.63056405 47.11906548 116.1201243 49.18018645 118 52 C118.391875 51.484375 118.78375 50.96875 119.1875 50.4375 C121 49 121 49 123.5625 49.1875 C126 50 126 50 128 52 C127.74123238 55.01895562 126.9195993 57.1608014 125.5625 59.875 C122.88356844 65.7450118 122.69533078 72.64385862 122 79 C126.63886673 75.70954243 129.60526131 71.85746173 132.8125 67.25 C133.31458984 66.57195312 133.81667969 65.89390625 134.33398438 65.1953125 C137.86964596 60.13474653 138.31185873 57.11373047 138 51 C140.1875 47.9375 140.1875 47.9375 143 46 C145.8125 46.1875 145.8125 46.1875 148 47 C147.7834375 47.8353125 147.7834375 47.8353125 147.5625 48.6875 C146.97230872 51.11384195 146.476571 53.54906345 146 56 C146.62648438 56.04898438 147.25296875 56.09796875 147.8984375 56.1484375 C148.71570313 56.22320312 149.53296875 56.29796875 150.375 56.375 C151.18710937 56.44460937 151.99921875 56.51421875 152.8359375 56.5859375 C155 57 155 57 157 59 C156.65525296 63.67994108 154.42286852 67.8499507 152.5 72.0625 C151.86162755 73.468714 151.22611326 74.87622974 150.59375 76.28515625 C150.31208984 76.90269775 150.03042969 77.52023926 149.74023438 78.15649414 C148.9674552 80.08105073 148.45764055 81.97940534 148 84 C153.39729481 80.89051374 156.51916146 77.15104093 160.125 72.125 C160.63675781 71.43019531 161.14851562 70.73539062 161.67578125 70.01953125 C163.13623693 68.02595293 164.57097674 66.01617951 166 64 C166.71800781 63.00613281 167.43601562 62.01226562 168.17578125 60.98828125 C170.32669037 57.4648434 171.70021364 53.94373096 173.0625 50.0625 C173.5517305 48.69862399 174.04260542 47.33533667 174.53515625 45.97265625 C174.77250488 45.31539551 175.00985352 44.65813477 175.25439453 43.98095703 C176.39901387 40.93988261 177.69305495 37.97456039 179 35 C178.0925 35.165 177.185 35.33 176.25 35.5 C162.85167464 37.42583732 162.85167464 37.42583732 158 35 C158 34.34 158 33.68 158 33 C160.88143441 32.03952186 162.26212664 31.95641004 165.203125 32.140625 C172.68880185 32.3947011 172.68880185 32.3947011 180 31 C183.73214 27.20527838 185.11587685 22.9063438 187 18 C188.22835399 16.04215415 189.51653629 14.11991718 190.875 12.25 C191.44992187 11.45078125 192.02484375 10.6515625 192.6171875 9.828125 C194 8 194 8 195 7 C197.67058851 6.85884839 200.32432238 6.95752893 203 7 C203.6953125 8.7109375 203.6953125 8.7109375 204 11 C202.7421875 13.2265625 202.7421875 13.2265625 200.875 15.625 C197.23285502 20.52985256 194.60293801 25.47861634 192 31 C196.29 31 200.58 31 205 31 C204.67 31.99 204.34 32.98 204 34 C198.94531106 35.03685927 194.12740356 35.08332441 189 35 C188.59523438 36.25296875 188.19046875 37.5059375 187.7734375 38.796875 C186.5835372 42.37076076 185.29157568 45.88491025 183.9140625 49.390625 C178.80306911 62.43147601 174.84303277 75.28486704 172 89 C172.99 89 173.98 89 175 89 C175.24363281 88.43667969 175.48726563 87.87335938 175.73828125 87.29296875 C177.23847679 84.56660719 179.06178262 82.58456625 181.1875 80.3125 C186.0473667 75.00870316 190.47588553 69.48374325 194.6953125 63.66015625 C195.22898437 62.92667969 195.76265625 62.19320312 196.3125 61.4375 C196.78300781 60.77621094 197.25351562 60.11492187 197.73828125 59.43359375 C198.15464844 58.96050781 198.57101562 58.48742187 199 58 C199.66 58 200.32 58 201 58 C200.56607538 63.30007933 197.65823144 66.78088427 194.625 70.9375 C194.09132813 71.6795166 193.55765625 72.4215332 193.0078125 73.18603516 C189.41783526 78.14236281 185.75101754 83.03945194 182 87.875 C181.33411865 88.73919556 181.33411865 88.73919556 180.65478516 89.62084961 C178.36231014 92.52514693 176.20029588 95.09712137 173 97 C169.9375 97 169.9375 97 167 96 C163.72166895 92.50311355 163.61559528 89.06046853 163.76171875 84.4921875 C164.16662001 80.25731857 165.03239442 76.13824171 166 72 C165.35933594 72.88042969 164.71867188 73.76085937 164.05859375 74.66796875 C153.33867558 89.16563931 153.33867558 89.16563931 145.75 90.625 C143 90 143 90 141.125 88 C138.96638089 82.24368238 139.40577916 77.87343147 141.8125 72.375 C142.52638376 70.9091248 143.25485268 69.45023295 144 68 C144.5775 66.824375 145.155 65.64875 145.75 64.4375 C146.36875 63.2309375 146.36875 63.2309375 147 62 C144.69 61.34 142.38 60.68 140 60 C139.73832031 60.86625 139.47664062 61.7325 139.20703125 62.625 C136.12191319 71.25134952 130.75635211 80.82909859 123 86 C120.0825723 86.36467846 118.63434213 86.47575659 116.25 84.6875 C113.8620545 81.46377357 113.86440525 78.49208416 113.875 74.625 C113.87242187 73.68914062 113.86984375 72.75328125 113.8671875 71.7890625 C113.99558559 69.09270253 114.39811291 66.62728491 115 64 C114.56429687 64.64066406 114.12859375 65.28132813 113.6796875 65.94140625 C111.81525811 68.64926799 109.91822141 71.3299908 108 74 C107.47535156 74.73347656 106.95070313 75.46695313 106.41015625 76.22265625 C102.83927766 80.83543575 102.83927766 80.83543575 98.8125 81.625 C95.68076807 80.92905957 94.89330064 80.51538513 93 78 C92.48828125 75.30078125 92.48828125 75.30078125 92.3125 72.3125 C92.24675781 71.31863281 92.18101562 70.32476562 92.11328125 69.30078125 C92.05720703 68.16189453 92.05720703 68.16189453 92 67 C91.6376123 67.50861572 91.27522461 68.01723145 90.90185547 68.54125977 C89.22963713 70.88412119 87.55235753 73.22331553 85.875 75.5625 C85.02035156 76.76229492 85.02035156 76.76229492 84.1484375 77.98632812 C74.48754176 91.43473413 74.48754176 91.43473413 69.875 93.1875 C67 93 67 93 64.6875 91.25 C62.07052732 87.76070309 61.88255666 85.04313724 61.9375 80.8125 C61.94652344 79.91144531 61.95554688 79.01039062 61.96484375 78.08203125 C61.98224609 77.05142578 61.98224609 77.05142578 62 76 C61.20335937 76.66128906 60.40671875 77.32257813 59.5859375 78.00390625 C58.5163597 78.85769204 57.44600571 79.7105061 56.375 80.5625 C55.59189453 81.21895508 55.59189453 81.21895508 54.79296875 81.88867188 C51.92562322 84.13652917 50.40205813 85.0100395 46.71484375 84.91796875 C44 84 44 84 42.1875 81.75 C41.05746359 79.13307357 40.40208126 76.81456883 40 74 C39.46375 74.515625 38.9275 75.03125 38.375 75.5625 C36 77 36 77 33.125 77.125 C28.74509103 75.54823277 26.70605463 72.67524441 24 69 C23.43152344 69.72445312 22.86304688 70.44890625 22.27734375 71.1953125 C10.98929081 85.32893472 10.98929081 85.32893472 4.9375 86.6875 C1.04257233 85.77592118 -1.59112617 84.14949032 -4 81 C-5.04767324 78.30099417 -5.51180036 75.8803779 -6 73 C-6.60134766 74.01707031 -6.60134766 74.01707031 -7.21484375 75.0546875 C-11.49892615 82.0685367 -16.30484686 88.08410449 -22 94 C-22.50015625 94.57105469 -23.0003125 95.14210938 -23.515625 95.73046875 C-25.35969134 97.30763075 -26.60527499 97.54490762 -29 97.8125 C-29.680625 97.90144531 -30.36125 97.99039063 -31.0625 98.08203125 C-33 98 -33 98 -36 96 C-36 95.34 -36 94.68 -36 94 C-37.03125 94.680625 -38.0625 95.36125 -39.125 96.0625 C-41.65029254 97.46656265 -42.93258177 97.99560316 -45.875 98.1875 C-56.23817024 94.24949531 -63.82216314 84.80346151 -68.8046875 75.234375 C-70.00906327 72.98305821 -71.34726123 70.88216293 -72.75 68.75 C-74.5940295 65.85967163 -75.67412472 63.47600303 -76 60 C-76.66 60 -77.32 60 -78 60 C-78.0825 61.19625 -78.165 62.3925 -78.25 63.625 C-78.9785096 70.2977256 -81.06723345 76.59634329 -83 83 C-83.67417638 85.33126412 -84.33762268 87.66534273 -85 90 C-88.16115776 88.63016497 -88.9927092 88.0109362 -91 85 C-91.8015957 78.24369339 -90.19888033 72.63923328 -88.04272461 66.28833008 C-86.73075317 62.42272609 -85.64073622 58.58106825 -84.70703125 54.60546875 C-82.86455314 47.07247891 -80.34736026 39.79235563 -77.81152344 32.47070312 C-76.99495435 30.11041557 -76.18840677 27.7468655 -75.3828125 25.3828125 C-74.85996335 23.8617768 -74.33654612 22.34093622 -73.8125 20.8203125 C-73.57490967 20.12334259 -73.33731934 19.42637268 -73.0925293 18.70828247 C-71.6737708 14.63356985 -70.01219649 10.81590213 -68 7 C-65.125 6.875 -65.125 6.875 -62 7 C-61.34 7.66 -60.68 8.32 -60 9 C-60.45728895 12.26705074 -61.8231273 15.32408038 -62.99609375 18.39453125 C-63.38990234 19.43287109 -63.78371094 20.47121094 -64.18945312 21.54101562 C-65.01708548 23.71047446 -65.84520526 25.87974742 -66.67382812 28.04882812 C-70.49000645 37.26969283 -70.49000645 37.26969283 -72 47 C-51.55093862 29.65890861 -51.55093862 29.65890861 -38 7 C-34.125 8.75 -34.125 8.75 -33 11 C-32.18695651 16.69130443 -33.53641841 19.79342605 -36.76171875 24.2734375 C-41.84996327 30.471683 -47.4160151 36.24971967 -53 42 C-53.59272705 42.62044189 -54.1854541 43.24088379 -54.79614258 43.88012695 C-58.22893039 47.41450158 -61.59203256 50.33438652 -65.8125 52.9375 C-67.21435547 53.81728516 -67.21435547 53.81728516 -68.64453125 54.71484375 C-71 56 -71 56 -73 56 C-67.26975961 64.34086567 -60.94825032 71.67616858 -54 79 C-53.34773438 79.73992187 -52.69546875 80.47984375 -52.0234375 81.2421875 C-47.98812452 85.68287439 -44.94535023 87.06126049 -39 88 C-39.03480469 87.21238281 -39.06960937 86.42476563 -39.10546875 85.61328125 C-39.31219228 77.29512018 -38.21894903 70.00043091 -36 62 C-35.71125 60.95457031 -35.4225 59.90914062 -35.125 58.83203125 C-28.91567314 37.68151163 -22.01514384 16.68349316 -7 0 C-4.24438552 -1.37780724 -2.90228766 -0.92023755 0 0 Z " fill="#1D4B35" transform="translate(176,36)"/>
<path d="M0 0 C2.14541591 1.77551661 2.86177445 3.17401806 3.3203125 5.9140625 C4.24701238 23.39780019 -11.16861386 40.52970674 -20.828125 53.9609375 C-28.99011537 65.38185208 -29.2071496 78.39717651 -29 92 C-16.20190584 87.89747504 -8.17198664 68.37863324 -1.921875 57.3515625 C1.76138997 50.86581332 4.73188477 46.17874349 11 42 C14.54359483 41.67785502 17.12780596 41.6421768 20.4375 43 C22.40832712 45.52265871 22.7419356 47.63183818 22.578125 50.80859375 C21.07979859 56.48806075 16.11286966 60.55531987 11.25 63.5 C8 65 8 65 5 65 C5.04125 65.78375 5.0825 66.5675 5.125 67.375 C4.9637033 72.0526044 4.00914339 76.44083432 3 81 C9.56612422 79.79397718 12.62103413 76.89889585 17 72 C17.66 71.34 18.32 70.68 19 70 C19.765625 71.6796875 19.765625 71.6796875 20 74 C18.234375 76.5078125 18.234375 76.5078125 15.75 79.125 C14.94046875 79.99382812 14.1309375 80.86265625 13.296875 81.7578125 C10.64637114 84.34520913 8.89076113 85.86143716 5.1875 86.4375 C1.05204362 85.86988834 -1.50037416 84.26814434 -4 81 C-5.04767324 78.30099417 -5.51180036 75.8803779 -6 73 C-6.60134766 74.01707031 -6.60134766 74.01707031 -7.21484375 75.0546875 C-11.49892615 82.0685367 -16.30484686 88.08410449 -22 94 C-22.50015625 94.57105469 -23.0003125 95.14210938 -23.515625 95.73046875 C-25.35969134 97.30763075 -26.60527499 97.54490762 -29 97.8125 C-29.680625 97.90144531 -30.36125 97.99039063 -31.0625 98.08203125 C-33 98 -33 98 -36 96 C-36 95.34 -36 94.68 -36 94 C-37.03125 94.680625 -38.0625 95.36125 -39.125 96.0625 C-41.65029254 97.46656265 -42.93258177 97.99560316 -45.875 98.1875 C-56.23817024 94.24949531 -63.82216314 84.80346151 -68.8046875 75.234375 C-70.00906327 72.98305821 -71.34726123 70.88216293 -72.75 68.75 C-74.5940295 65.85967163 -75.67412472 63.47600303 -76 60 C-76.66 60 -77.32 60 -78 60 C-78.0825 61.19625 -78.165 62.3925 -78.25 63.625 C-78.9785096 70.2977256 -81.06723345 76.59634329 -83 83 C-83.67417638 85.33126412 -84.33762268 87.66534273 -85 90 C-88.16115776 88.63016497 -88.9927092 88.0109362 -91 85 C-91.8015957 78.24369339 -90.19888033 72.63923328 -88.04272461 66.28833008 C-86.73075317 62.42272609 -85.64073622 58.58106825 -84.70703125 54.60546875 C-82.86455314 47.07247891 -80.34736026 39.79235563 -77.81152344 32.47070312 C-76.99495435 30.11041557 -76.18840677 27.7468655 -75.3828125 25.3828125 C-74.85996335 23.8617768 -74.33654612 22.34093622 -73.8125 20.8203125 C-73.57490967 20.12334259 -73.33731934 19.42637268 -73.0925293 18.70828247 C-71.6737708 14.63356985 -70.01219649 10.81590213 -68 7 C-65.125 6.875 -65.125 6.875 -62 7 C-61.34 7.66 -60.68 8.32 -60 9 C-60.45728895 12.26705074 -61.8231273 15.32408038 -62.99609375 18.39453125 C-63.38990234 19.43287109 -63.78371094 20.47121094 -64.18945312 21.54101562 C-65.01708548 23.71047446 -65.84520526 25.87974742 -66.67382812 28.04882812 C-70.49000645 37.26969283 -70.49000645 37.26969283 -72 47 C-51.55093862 29.65890861 -51.55093862 29.65890861 -38 7 C-34.125 8.75 -34.125 8.75 -33 11 C-32.18695651 16.69130443 -33.53641841 19.79342605 -36.76171875 24.2734375 C-41.84996327 30.471683 -47.4160151 36.24971967 -53 42 C-53.59272705 42.62044189 -54.1854541 43.24088379 -54.79614258 43.88012695 C-58.22893039 47.41450158 -61.59203256 50.33438652 -65.8125 52.9375 C-67.21435547 53.81728516 -67.21435547 53.81728516 -68.64453125 54.71484375 C-71 56 -71 56 -73 56 C-67.26975961 64.34086567 -60.94825032 71.67616858 -54 79 C-53.34773438 79.73992187 -52.69546875 80.47984375 -52.0234375 81.2421875 C-47.98812452 85.68287439 -44.94535023 87.06126049 -39 88 C-39.03480469 87.21238281 -39.06960937 86.42476563 -39.10546875 85.61328125 C-39.31219228 77.29512018 -38.21894903 70.00043091 -36 62 C-35.71125 60.95457031 -35.4225 59.90914062 -35.125 58.83203125 C-28.91567314 37.68151163 -22.01514384 16.68349316 -7 0 C-4.24438552 -1.37780724 -2.90228766 -0.92023755 0 0 Z " fill="#1B4933" transform="translate(176,36)"/>
<path d="M0 0 C2.05078125 0.03255208 4.1015625 0.06510417 6.15234375 0.09765625 C6.84765625 1.80859375 6.84765625 1.80859375 7.15234375 4.09765625 C5.89453125 6.32421875 5.89453125 6.32421875 4.02734375 8.72265625 C0.38519877 13.62750881 -2.24471824 18.57627259 -4.84765625 24.09765625 C-0.55765625 24.09765625 3.73234375 24.09765625 8.15234375 24.09765625 C7.65734375 25.58265625 7.65734375 25.58265625 7.15234375 27.09765625 C2.09765481 28.13451552 -2.72025269 28.18098066 -7.84765625 28.09765625 C-8.25242187 29.350625 -8.6571875 30.60359375 -9.07421875 31.89453125 C-10.26411905 35.46841701 -11.55608057 38.9825665 -12.93359375 42.48828125 C-18.04458714 55.52913226 -22.00462348 68.38252329 -24.84765625 82.09765625 C-23.85765625 82.09765625 -22.86765625 82.09765625 -21.84765625 82.09765625 C-21.60402344 81.53433594 -21.36039062 80.97101563 -21.109375 80.390625 C-19.60917946 77.66426344 -17.78587363 75.6822225 -15.66015625 73.41015625 C-10.80028955 68.10635941 -6.37177072 62.5813995 -2.15234375 56.7578125 C-1.61867188 56.02433594 -1.085 55.29085937 -0.53515625 54.53515625 C0.17060547 53.54322266 0.17060547 53.54322266 0.890625 52.53125 C1.30699219 52.05816406 1.72335937 51.58507812 2.15234375 51.09765625 C2.81234375 51.09765625 3.47234375 51.09765625 4.15234375 51.09765625 C3.71841913 56.39773558 0.81057519 59.87854052 -2.22265625 64.03515625 C-2.75632812 64.77717285 -3.29 65.51918945 -3.83984375 66.28369141 C-7.42982099 71.24001906 -11.09663871 76.13710819 -14.84765625 80.97265625 C-15.29157715 81.54878662 -15.73549805 82.12491699 -16.19287109 82.71850586 C-18.48534611 85.62280318 -20.64736037 88.19477762 -23.84765625 90.09765625 C-26.91015625 90.09765625 -26.91015625 90.09765625 -29.84765625 89.09765625 C-33.1259873 85.6007698 -33.23206097 82.15812478 -33.0859375 77.58984375 C-32.68103624 73.35497482 -31.81526183 69.23589796 -30.84765625 65.09765625 C-31.80865234 66.41830078 -31.80865234 66.41830078 -32.7890625 67.765625 C-43.50898067 82.26329556 -43.50898067 82.26329556 -51.09765625 83.72265625 C-53.84765625 83.09765625 -53.84765625 83.09765625 -55.72265625 81.09765625 C-57.88127536 75.34133863 -57.44187709 70.97108772 -55.03515625 65.47265625 C-54.32127249 64.00678105 -53.59280357 62.5478892 -52.84765625 61.09765625 C-52.27015625 59.92203125 -51.69265625 58.74640625 -51.09765625 57.53515625 C-50.47890625 56.32859375 -50.47890625 56.32859375 -49.84765625 55.09765625 C-52.15765625 54.43765625 -54.46765625 53.77765625 -56.84765625 53.09765625 C-57.10933594 53.96390625 -57.37101562 54.83015625 -57.640625 55.72265625 C-60.72574306 64.34900577 -66.09130414 73.92675484 -73.84765625 79.09765625 C-76.76508395 79.46233471 -78.21331412 79.57341284 -80.59765625 77.78515625 C-82.98560175 74.56142982 -82.983251 71.58974041 -82.97265625 67.72265625 C-82.97523438 66.78679687 -82.9778125 65.8509375 -82.98046875 64.88671875 C-82.85207066 62.19035878 -82.44954334 59.72494116 -81.84765625 57.09765625 C-82.83765625 57.75765625 -83.82765625 58.41765625 -84.84765625 59.09765625 C-85.47265625 57.28515625 -85.47265625 57.28515625 -85.84765625 55.09765625 C-85.18765625 54.10765625 -84.52765625 53.11765625 -83.84765625 52.09765625 C-83.45377837 49.77377678 -83.1127954 47.43971876 -82.84765625 45.09765625 C-81.52765625 45.75765625 -80.20765625 46.41765625 -78.84765625 47.09765625 C-78.62078125 46.45828125 -78.39390625 45.81890625 -78.16015625 45.16015625 C-76.84765625 43.09765625 -76.84765625 43.09765625 -74.41015625 42.16015625 C-71.84765625 42.09765625 -71.84765625 42.09765625 -69.97265625 43.22265625 C-68.84765625 45.09765625 -68.84765625 45.09765625 -68.97265625 47.34765625 C-69.84765625 50.09765625 -69.84765625 50.09765625 -71.28515625 52.97265625 C-73.96408781 58.84266805 -74.15232547 65.74151487 -74.84765625 72.09765625 C-70.20878952 68.80719868 -67.24239494 64.95511798 -64.03515625 60.34765625 C-63.53306641 59.66960937 -63.03097656 58.9915625 -62.51367188 58.29296875 C-58.97801029 53.23240278 -58.53579752 50.21138672 -58.84765625 44.09765625 C-56.66015625 41.03515625 -56.66015625 41.03515625 -53.84765625 39.09765625 C-51.03515625 39.28515625 -51.03515625 39.28515625 -48.84765625 40.09765625 C-48.99203125 40.65453125 -49.13640625 41.21140625 -49.28515625 41.78515625 C-49.87534753 44.2114982 -50.37108525 46.6467197 -50.84765625 49.09765625 C-50.22117187 49.14664063 -49.5946875 49.195625 -48.94921875 49.24609375 C-48.13195312 49.32085937 -47.3146875 49.395625 -46.47265625 49.47265625 C-45.66054688 49.54226562 -44.8484375 49.611875 -44.01171875 49.68359375 C-41.84765625 50.09765625 -41.84765625 50.09765625 -39.84765625 52.09765625 C-40.19240329 56.77759733 -42.42478773 60.94760695 -44.34765625 65.16015625 C-44.9860287 66.56637025 -45.62154299 67.97388599 -46.25390625 69.3828125 C-46.53556641 70.000354 -46.81722656 70.61789551 -47.10742188 71.25415039 C-47.88020105 73.17870698 -48.3900157 75.07706159 -48.84765625 77.09765625 C-43.45036144 73.98816999 -40.32849479 70.24869718 -36.72265625 65.22265625 C-36.21089844 64.52785156 -35.69914062 63.83304688 -35.171875 63.1171875 C-33.71141932 61.12360918 -32.27667951 59.11383576 -30.84765625 57.09765625 C-30.12964844 56.10378906 -29.41164063 55.10992187 -28.671875 54.0859375 C-26.52096588 50.56249965 -25.14744261 47.04138721 -23.78515625 43.16015625 C-23.29592575 41.79628024 -22.80505083 40.43299292 -22.3125 39.0703125 C-22.07515137 38.41305176 -21.83780273 37.75579102 -21.59326172 37.07861328 C-20.44864238 34.03753886 -19.1546013 31.07221664 -17.84765625 28.09765625 C-19.20890625 28.34515625 -19.20890625 28.34515625 -20.59765625 28.59765625 C-33.99598161 30.52349357 -33.99598161 30.52349357 -38.84765625 28.09765625 C-38.84765625 27.43765625 -38.84765625 26.77765625 -38.84765625 26.09765625 C-35.96622184 25.13717811 -34.58552961 25.05406629 -31.64453125 25.23828125 C-24.1588544 25.49235735 -24.1588544 25.49235735 -16.84765625 24.09765625 C-13.11551625 20.30293463 -11.7317794 16.00400005 -9.84765625 11.09765625 C-8.61930226 9.1398104 -7.33111996 7.21757343 -5.97265625 5.34765625 C-5.11027344 4.14882813 -5.11027344 4.14882813 -4.23046875 2.92578125 C-2.10139012 0.11106713 -2.10139012 0.11106713 0 0 Z " fill="#1B4A34" transform="translate(372.84765625,42.90234375)"/>
<path d="M0 0 C3.43664877 1.23200616 5.04272754 2.37298215 7.3125 5.1875 C7.9725 4.8575 8.6325 4.5275 9.3125 4.1875 C8.9825 5.5075 8.6525 6.8275 8.3125 8.1875 C7.6525 8.1875 6.9925 8.1875 6.3125 8.1875 C6.49167969 8.909375 6.67085937 9.63125 6.85546875 10.375 C7.75011357 15.88050658 6.50643514 21.33484202 3.5 26 C2.778125 26.721875 2.05625 27.44375 1.3125 28.1875 C0.4875 29.05375 -0.3375 29.92 -1.1875 30.8125 C-2.0125 31.59625 -2.8375 32.38 -3.6875 33.1875 C-4.6465625 34.115625 -4.6465625 34.115625 -5.625 35.0625 C-7.6875 36.1875 -7.6875 36.1875 -10.75 36.1875 C-13.6875 35.1875 -13.6875 35.1875 -15.5 32.9375 C-16.63003641 30.32057357 -17.28541874 28.00206883 -17.6875 25.1875 C-18.22375 25.703125 -18.76 26.21875 -19.3125 26.75 C-21.6875 28.1875 -21.6875 28.1875 -24.5625 28.3125 C-28.94240897 26.73573277 -30.98144537 23.86274441 -33.6875 20.1875 C-34.368125 21.1775 -34.368125 21.1775 -35.0625 22.1875 C-35.59875 22.8475 -36.135 23.5075 -36.6875 24.1875 C-37.3475 24.1875 -38.0075 24.1875 -38.6875 24.1875 C-38.3704935 20.70042848 -37.39209845 18.59783761 -35.3125 15.875 C-32.51001726 12.18412216 -31.2143111 8.54981743 -29.6875 4.1875 C-29.0275 3.1975 -28.3675 2.2075 -27.6875 1.1875 C-25.3775 1.5175 -23.0675 1.8475 -20.6875 2.1875 C-20 3.9375 -20 3.9375 -19.6875 6.1875 C-20.65623032 7.54372245 -21.66426564 8.87191297 -22.6875 10.1875 C-24.60234144 14.34347872 -25.6875 17.56544561 -25.6875 22.1875 C-19.71818897 20.14087907 -16.22302672 17.46777684 -13.3125 11.875 C-10.22577633 6.05845509 -7.03025057 0.35747037 0 0 Z " fill="#1E4C36" transform="translate(233.6875,84.8125)"/>
<path d="M0 0 C0.721875 0.268125 1.44375 0.53625 2.1875 0.8125 C2.043125 1.369375 1.89875 1.92625 1.75 2.5 C1.15980872 4.92634195 0.664071 7.36156345 0.1875 9.8125 C0.81398438 9.86148438 1.44046875 9.91046875 2.0859375 9.9609375 C3.31183594 10.07308594 3.31183594 10.07308594 4.5625 10.1875 C5.37460937 10.25710937 6.18671875 10.32671875 7.0234375 10.3984375 C9.1875 10.8125 9.1875 10.8125 11.1875 12.8125 C10.80000188 16.44928722 9.57358792 19.55993196 8.12109375 22.89453125 C7.71826172 23.82587891 7.31542969 24.75722656 6.90039062 25.71679688 C6.47951172 26.67650391 6.05863281 27.63621094 5.625 28.625 C5.20025391 29.60404297 4.77550781 30.58308594 4.33789062 31.59179688 C3.29210494 34.00062907 2.24185216 36.40740803 1.1875 38.8125 C2.1775 39.1425 3.1675 39.4725 4.1875 39.8125 C4.1875 40.8025 4.1875 41.7925 4.1875 42.8125 C3.1875 43.8125 3.1875 43.8125 0.3125 44.1875 C-2.8125 43.8125 -2.8125 43.8125 -4.6875 41.8125 C-6.84611911 36.05618238 -6.40672084 31.68593147 -4 26.1875 C-3.28611624 24.7216248 -2.55764732 23.26273295 -1.8125 21.8125 C-0.94625 20.0490625 -0.94625 20.0490625 -0.0625 18.25 C0.55625 17.0434375 0.55625 17.0434375 1.1875 15.8125 C-1.1225 15.1525 -3.4325 14.4925 -5.8125 13.8125 C-6.07417969 14.67875 -6.33585937 15.545 -6.60546875 16.4375 C-9.69058681 25.06384952 -15.05614789 34.64159859 -22.8125 39.8125 C-25.7299277 40.17717846 -27.17815787 40.28825659 -29.5625 38.5 C-31.9504455 35.27627357 -31.94809475 32.30458416 -31.9375 28.4375 C-31.94007813 27.50164062 -31.94265625 26.56578125 -31.9453125 25.6015625 C-31.81691441 22.90520253 -31.41438709 20.43978491 -30.8125 17.8125 C-31.8025 18.4725 -32.7925 19.1325 -33.8125 19.8125 C-34.4375 18 -34.4375 18 -34.8125 15.8125 C-34.1525 14.8225 -33.4925 13.8325 -32.8125 12.8125 C-32.41862212 10.48862053 -32.07763915 8.15456251 -31.8125 5.8125 C-30.4925 6.4725 -29.1725 7.1325 -27.8125 7.8125 C-27.585625 7.173125 -27.35875 6.53375 -27.125 5.875 C-25.8125 3.8125 -25.8125 3.8125 -23.375 2.875 C-20.8125 2.8125 -20.8125 2.8125 -18.9375 3.9375 C-17.8125 5.8125 -17.8125 5.8125 -17.9375 8.0625 C-18.8125 10.8125 -18.8125 10.8125 -20.25 13.6875 C-22.92893156 19.5575118 -23.11716922 26.45635862 -23.8125 32.8125 C-19.17363327 29.52204243 -16.20723869 25.66996173 -13 21.0625 C-12.49791016 20.38445312 -11.99582031 19.70640625 -11.47851562 19.0078125 C-7.94285404 13.94724653 -7.50064127 10.92623047 -7.8125 4.8125 C-4.17613636 -0.27840909 -4.17613636 -0.27840909 0 0 Z " fill="#1C4A34" transform="translate(321.8125,82.1875)"/>
<path d="M0 0 C2.4375 1 2.4375 1 4 3 C4.78636108 7.21775488 4.93194094 9.48422547 2.671875 13.16015625 C-1.00931831 17.59582837 -4.77665121 20.58922364 -10 23 C-10.99 23 -11.98 23 -13 23 C-12.95875 23.78375 -12.9175 24.5675 -12.875 25.375 C-13.0362967 30.0526044 -13.99085661 34.44083432 -15 39 C-8.43387578 37.79397718 -5.37896587 34.89889585 -1 30 C-0.34 29.34 0.32 28.68 1 28 C1.765625 29.6796875 1.765625 29.6796875 2 32 C0.234375 34.5078125 0.234375 34.5078125 -2.25 37.125 C-3.05953125 37.99382812 -3.8690625 38.86265625 -4.703125 39.7578125 C-7.35362886 42.34520913 -9.10923887 43.86143716 -12.8125 44.4375 C-16.94795638 43.86988834 -19.50037416 42.26814434 -22 39 C-23.04767324 36.30099417 -23.51180036 33.8803779 -24 31 C-24.67095703 32.10408203 -24.67095703 32.10408203 -25.35546875 33.23046875 C-28.5288386 38.35251774 -31.45997885 43.01028444 -36 47 C-36.66 45.68 -37.32 44.36 -38 43 C-37.59910156 42.52433594 -37.19820312 42.04867187 -36.78515625 41.55859375 C-30.23243153 33.49027284 -25.14694811 24.57009816 -20.046875 15.54296875 C-10.69858532 -0.9384724 -10.69858532 -0.9384724 0 0 Z " fill="#204E38" transform="translate(194,78)"/>
<path d="M0 0 C0.7734375 -0.01675781 1.546875 -0.03351562 2.34375 -0.05078125 C4.5 0.3125 4.5 0.3125 6.28125 1.39453125 C8.23379859 4.46729202 7.88228192 6.73595859 7.5 10.3125 C6.58693971 13.06083965 5.3480595 15.56591925 4 18.125 C3.64196289 18.82351074 3.28392578 19.52202148 2.91503906 20.24169922 C0.20306121 25.36840319 -2.95009276 29.85228457 -6.74609375 34.25 C-8.30405062 36.082074 -9.56526501 37.88880982 -10.8125 39.9375 C-11.369375 40.72125 -11.92625 41.505 -12.5 42.3125 C-13.49 42.3125 -14.48 42.3125 -15.5 42.3125 C-16.54449911 39.17900268 -16.43423645 38.32281744 -15.5 35.3125 C-16.428125 35.8075 -17.35625 36.3025 -18.3125 36.8125 C-21.5 38.3125 -21.5 38.3125 -24.5 38.3125 C-21.75078864 26.91472792 -14.47704533 0.07238523 0 0 Z " fill="#1D4B35" transform="translate(267.5,49.6875)"/>
<path d="M0 0 C3.05010954 1.28425665 3.94396107 1.98728647 5.375 5 C7.60558654 18.3291147 -2.27056662 31.73117834 -9.328125 42.22265625 C-10.625 44 -10.625 44 -12.625 46 C-13.285 45.01 -13.945 44.02 -14.625 43 C-15.945 44.65 -17.265 46.3 -18.625 48 C-17.32519661 41.51398107 -15.50175619 35.54064368 -13.125 29.375 C-11.0572302 23.95900044 -9.12694762 18.60226462 -7.625 13 C-10.91288824 16.11016455 -13.46235988 19.01618925 -15.625 23 C-16.285 22.01 -16.945 21.02 -17.625 20 C-16.07364066 17.40938052 -14.50968585 14.82793879 -12.9375 12.25 C-12.50244141 11.52039062 -12.06738281 10.79078125 -11.61914062 10.0390625 C-5.45880682 0 -5.45880682 0 0 0 Z " fill="#204D37" transform="translate(173.625,35)"/>
<path d="M0 0 C1.32 0 2.64 0 4 0 C4 1.98 4 3.96 4 6 C4.66 5.67 5.32 5.34 6 5 C5.53533998 7.90412513 4.71687936 9.41794 3.03125 11.90625 C0.11876429 16.92067116 0.08827239 22.26086638 -0.25 27.9375 C-0.32734375 29.00291016 -0.4046875 30.06832031 -0.484375 31.16601562 C-0.6716872 33.77667945 -0.84310775 36.38736143 -1 39 C-0.34 39 0.32 39 1 39 C1 40.32 1 41.64 1 43 C-1.75 43.75 -1.75 43.75 -5 44 C-7.88642473 41.81567858 -8.85101198 40.44696406 -10 37 C-10.06802967 35.27204648 -10.08495645 33.54164635 -10.0625 31.8125 C-10.05347656 30.91144531 -10.04445312 30.01039062 -10.03515625 29.08203125 C-10.02355469 28.39496094 -10.01195312 27.70789063 -10 27 C-11.32 27.33 -12.64 27.66 -14 28 C-13.36578125 27.31292969 -12.7315625 26.62585938 -12.078125 25.91796875 C-9.69667402 22.57408927 -9.24786289 20.35533106 -8.75 16.3125 C-8.60046875 15.17425781 -8.4509375 14.03601563 -8.296875 12.86328125 C-7.96562312 10.14821583 -7.96562312 10.14821583 -8 8 C-7.34 7.67 -6.68 7.34 -6 7 C-5.27840576 5.35636866 -4.60648579 3.68949614 -4 2 C-3.01 2 -2.02 2 -1 2 C-0.67 1.34 -0.34 0.68 0 0 Z " fill="#1A4932" transform="translate(248,85)"/>
<path d="M0 0 C0.33 0.66 0.66 1.32 1 2 C1.66 2 2.32 2 3 2 C2.125 9.75 2.125 9.75 1 12 C2.32 11.67 3.64 11.34 5 11 C5.19409813 16.07243111 4.60715828 20.15323425 3.125 25 C2.77695313 26.155 2.42890625 27.31 2.0703125 28.5 C1.71710938 29.655 1.36390625 30.81 1 32 C0.32381243 34.3307376 -0.33879836 36.66494556 -1 39 C-4.16115776 37.63016497 -4.9927092 37.0109362 -7 34 C-7.90334472 26.38609452 -5.61727967 19.9716837 -3.24609375 12.84375 C-1.84341267 8.61393564 -0.85882907 4.37222074 0 0 Z " fill="#1D4B35" transform="translate(92,87)"/>
<path d="M0 0 C2.50678535 0.3457635 3.84891729 0.87496604 5.8125 2.5 C7.70342297 6.48089045 7.34909273 9.85051782 6 14 C2.89979031 18.71662919 -1.30707895 22.87138597 -6 26 C-6.99 26 -7.98 26 -9 26 C-10.07109572 16.57435764 -4.79702523 7.81737445 0 0 Z " fill="#F2F5F3" transform="translate(234,90)"/>
<path d="M0 0 C1.66753376 11.91095543 -7.43281383 23.06645457 -13.984375 32.35546875 C-15.57271792 34.43939929 -17.13290919 36.18632099 -19 38 C-17.68620104 31.35056855 -15.79340749 25.2771417 -13.25 19 C-12.89655518 18.1244043 -12.54311035 17.24880859 -12.17895508 16.34667969 C-5.41265187 0 -5.41265187 0 0 0 Z " fill="#ECF0EE" transform="translate(270,54)"/>
<path d="M0 0 C-0.56004542 5.22259221 -1.81754743 9.75394956 -3.8125 14.625 C-4.06064453 15.26695313 -4.30878906 15.90890625 -4.56445312 16.5703125 C-6.20058992 20.6335937 -8.2148017 23.65331462 -11 27 C-11.88220915 28.64131936 -12.7177908 30.30873687 -13.5 32 C-15.30427979 35.7426237 -17.20030725 38.88923027 -20 42 C-18.65393481 35.20754795 -16.68144662 28.95326299 -14.1875 22.5 C-13.85685547 21.61441406 -13.52621094 20.72882812 -13.18554688 19.81640625 C-5.60526225 0 -5.60526225 0 0 0 Z " fill="#E8ECEA" transform="translate(175,41)"/>
<path d="M0 0 C1.32 0 2.64 0 4 0 C5.04783495 3.45709051 5.43881161 6.40081112 5 10 C2.44285607 14.42417998 -0.67380499 18.1184545 -4 22 C-4.66 22.99 -5.32 23.98 -6 25 C-6.99 25 -7.98 25 -9 25 C-8.41244962 15.89296912 -5.9814926 7.10302247 0 0 Z " fill="#EDF0EF" transform="translate(285,85)"/>
<path d="M0 0 C2.3125 0.9375 2.3125 0.9375 4.3125 3.9375 C3.4375 7.625 3.4375 7.625 2.3125 10.9375 C1.9825 10.9375 1.6525 10.9375 1.3125 10.9375 C1.3125 9.2875 1.3125 7.6375 1.3125 5.9375 C-3.52204463 9.16052975 -5.43966109 12.76370318 -7.6875 17.9375 C-8.0175 16.9475 -8.3475 15.9575 -8.6875 14.9375 C-8.3575 14.2775 -8.0275 13.6175 -7.6875 12.9375 C-10.97538824 16.04766455 -13.52485988 18.95368925 -15.6875 22.9375 C-16.3475 21.9475 -17.0075 20.9575 -17.6875 19.9375 C-16.13614066 17.34688052 -14.57218585 14.76543879 -13 12.1875 C-12.56494141 11.45789062 -12.12988281 10.72828125 -11.68164062 9.9765625 C-5.48143564 -0.12747525 -5.48143564 -0.12747525 0 0 Z " fill="#1C4B34" transform="translate(173.6875,35.0625)"/>
<path d="M0 0 C0.66 0 1.32 0 2 0 C2.43462097 5.98379943 1.2140565 9.66028694 -1.5 14.8125 C-1.85803711 15.51101074 -2.21607422 16.20952148 -2.58496094 16.92919922 C-5.29572447 22.05360767 -8.45347478 26.53141156 -12.234375 30.9375 C-14.41983912 33.49043154 -16.20796495 36.16261116 -18 39 C-18.66 38.01 -19.32 37.02 -20 36 C-19.34773437 35.05640625 -18.69546875 34.1128125 -18.0234375 33.140625 C-7.57723851 18.7483633 -7.57723851 18.7483633 -3 2 C-2.67 2 -2.34 2 -2 2 C-1.67 3.65 -1.34 5.3 -1 7 C-0.67 4.69 -0.34 2.38 0 0 Z " fill="#295540" transform="translate(273,53)"/>
<path d="M0 0 C3.29714793 0.32971479 4.6226839 0.6226839 7 3 C6.65808955 6.41910447 5.0111566 8.31845786 3 11 C2.855625 11.680625 2.71125 12.36125 2.5625 13.0625 C1.77019317 15.79155687 0.40348636 16.58618449 -2 18 C-2.99 18 -3.98 18 -5 18 C-5.39787418 13.49075934 -3.98878751 10.97757503 -2 7 C-1.96213099 5.33376361 -1.95372155 3.66602403 -2 2 C-1.34 1.34 -0.68 0.68 0 0 Z " fill="#224F3A" transform="translate(214,64)"/>
<path d="M0 0 C0.33 0.99 0.66 1.98 1 3 C3.64 3.33 6.28 3.66 9 4 C9 4.33 9 4.66 9 5 C6.03 5 3.06 5 0 5 C-0.39832031 6.22589844 -0.79664063 7.45179687 -1.20703125 8.71484375 C-3.20980974 14.72317921 -5.44875046 20.63891867 -7.6875 26.5625 C-8.10322266 27.66658203 -8.51894531 28.77066406 -8.94726562 29.90820312 C-9.96333474 32.6060418 -10.98094405 35.30328845 -12 38 C-12.66 38 -13.32 38 -14 38 C-14.33 38.66 -14.66 39.32 -15 40 C-13.54405814 31.93165553 -10.65237818 24.73447257 -7.5 17.1875 C-7.00113281 15.97384766 -6.50226563 14.76019531 -5.98828125 13.50976562 C-2.02966053 3.92098864 -2.02966053 3.92098864 0 0 Z " fill="#658475" transform="translate(365,66)"/>
<path d="M0 0 C0.99 1.32 1.98 2.64 3 4 C-1.1157286 9.6997891 -5.07737367 15.05158245 -11 19 C-12.32 18.01 -13.64 17.02 -15 16 C-14.67 15.34 -14.34 14.68 -14 14 C-13.25363281 13.75507812 -12.50726563 13.51015625 -11.73828125 13.2578125 C-8.13262844 11.60157826 -6.39356915 9.03911249 -4.1875 5.875 C-3.78080078 5.31167969 -3.37410156 4.74835938 -2.95507812 4.16796875 C-1.95964972 2.78607991 -0.97837036 1.3940179 0 0 Z " fill="#224F39" transform="translate(338,105)"/>
<path d="M0 0 C0.66 1.32 1.32 2.64 2 4 C1.39865234 4.76570313 1.39865234 4.76570313 0.78515625 5.546875 C-1.97961326 9.0827707 -4.7320525 12.62351146 -7.3984375 16.234375 C-7.7994165 16.77610352 -8.20039551 17.31783203 -8.61352539 17.87597656 C-9.77282557 19.44626058 -10.92751203 21.01994755 -12.08203125 22.59375 C-14 25 -14 25 -16 26 C-16 25.01 -16 24.02 -16 23 C-16.66 22.67 -17.32 22.34 -18 22 C-16.67742187 20.98292969 -16.67742187 20.98292969 -15.328125 19.9453125 C-11.80266958 17.00605208 -9.32330461 13.64759163 -6.75 9.875 C-6.1003125 8.94494141 -6.1003125 8.94494141 -5.4375 7.99609375 C-3.59429189 5.35074878 -1.78843493 2.6826524 0 0 Z " fill="#25523C" transform="translate(265,101)"/>
<path d="M0 0 C0.66 0 1.32 0 2 0 C2.83709716 6.81636261 2.83709716 6.81636261 0.546875 10.0546875 C-2.22364911 12.86013419 -4.21939064 14.73979688 -8 16 C-6.2613238 9.76620972 -4.15268577 5.00451874 0 0 Z " fill="#ECEFEE" transform="translate(191,81)"/>
<path d="M0 0 C1.31871094 -0.01417969 2.63742187 -0.02835937 3.99609375 -0.04296875 C7.2175867 0.16521097 8.90170999 0.46581234 11.5625 2.1875 C11.2325 2.8475 10.9025 3.5075 10.5625 4.1875 C7.43751937 4.21645976 4.3125731 4.23428483 1.1875 4.25 C0.29804688 4.25837891 -0.59140625 4.26675781 -1.5078125 4.27539062 C-2.78398437 4.28022461 -2.78398437 4.28022461 -4.0859375 4.28515625 C-5.26422119 4.29301147 -5.26422119 4.29301147 -6.46630859 4.30102539 C-8.4375 4.1875 -8.4375 4.1875 -10.4375 3.1875 C-10.4375 2.5275 -10.4375 1.8675 -10.4375 1.1875 C-6.90252138 0.00917379 -3.67856929 0.00352691 0 0 Z " fill="#29543F" transform="translate(344.4375,67.8125)"/>
<path d="M0 0 C0.33 0 0.66 0 1 0 C1.33 1.65 1.66 3.3 2 5 C2.99 5 3.98 5 5 5 C3.62968895 10.65253308 -0.67689413 13.5113541 -5 17 C-6.32 16.01 -7.64 15.02 -9 14 C-8.43410156 13.57589844 -7.86820313 13.15179688 -7.28515625 12.71484375 C-2.16744103 8.83169676 -2.16744103 8.83169676 0 3.0625 C0 2.051875 0 1.04125 0 0 Z " fill="#24513B" transform="translate(193,82)"/>
<path d="M0 0 C0.33 0.66 0.66 1.32 1 2 C1.66 2 2.32 2 3 2 C2.45018084 8.04801071 1.09570426 13.30601106 -1 19 C-2.61328125 18.01171875 -2.61328125 18.01171875 -4 16 C-3.55716975 13.11417334 -3.00044459 10.59107179 -2.1875 7.8125 C-1.98318359 7.06291016 -1.77886719 6.31332031 -1.56835938 5.54101562 C-1.06129281 3.68963305 -0.53266865 1.8441795 0 0 Z " fill="#476C5A" transform="translate(92,87)"/>
<path d="M0 0 C0.99 0.99 1.98 1.98 3 3 C0.03 7.95 0.03 7.95 -3 13 C-3.33 12.34 -3.66 11.68 -4 11 C-4.99 10.67 -5.98 10.34 -7 10 C-3.535 5.05 -3.535 5.05 0 0 Z " fill="#27533E" transform="translate(311,99)"/>
<path d="M0 0 C0.33 0.99 0.66 1.98 1 3 C3.64 3.33 6.28 3.66 9 4 C9 4.33 9 4.66 9 5 C6.03 5 3.06 5 0 5 C-0.680625 7.0728125 -0.680625 7.0728125 -1.375 9.1875 C-2.47975443 12.50699909 -3.64632091 15.77199601 -5 19 C-5.33 19 -5.66 19 -6 19 C-6.3718693 13.90229172 -5.23363859 10.68534545 -3 6.125 C-2.1646875 4.39636719 -2.1646875 4.39636719 -1.3125 2.6328125 C-0.879375 1.76398438 -0.44625 0.89515625 0 0 Z " fill="#325C48" transform="translate(365,66)"/>
<path d="M0 0 C0.99 0.33 1.98 0.66 3 1 C2.875 3.25 2.875 3.25 2 6 C-1.0625 8.3125 -1.0625 8.3125 -4 10 C-5.32 9.01 -6.64 8.02 -8 7 C-7 5 -7 5 -4.5625 4.0625 C-1.70136041 3.15452711 -1.70136041 3.15452711 0 0 Z " fill="#2A5541" transform="translate(331,114)"/>
<path d="M0 0 C0.66 0.66 1.32 1.32 2 2 C0.35 5.3 -1.3 8.6 -3 12 C-1.68 12.33 -0.36 12.66 1 13 C-0.65 13 -2.3 13 -4 13 C-5.0169313 10.34501768 -5.13022151 9.30844625 -4.00390625 6.640625 C-3.52824219 5.85171875 -3.05257813 5.0628125 -2.5625 4.25 C-2.08941406 3.45078125 -1.61632812 2.6515625 -1.12890625 1.828125 C-0.75636719 1.22484375 -0.38382812 0.6215625 0 0 Z " fill="#3A624F" transform="translate(371,55)"/>
<path d="M0 0 C2.475 0.495 2.475 0.495 5 1 C5 2.98 5 4.96 5 7 C3.68 7.33 2.36 7.66 1 8 C0.67 5.36 0.34 2.72 0 0 Z " fill="#11422B" transform="translate(193,80)"/>
<path d="M0 0 C0.33 0 0.66 0 1 0 C0.44687265 4.02992782 -0.1558062 8.02022924 -1 12 C-1.99 12 -2.98 12 -4 12 C-3.54177532 8.53058454 -3.10868317 5.32604951 -2 2 C-1.34 2 -0.68 2 0 2 C0 1.34 0 0.68 0 0 Z " fill="#39614E" transform="translate(351,104)"/>
<path d="M0 0 C1.55373847 3.10747694 0.58528628 5.74226527 0.0625 9.125 C-0.13214844 10.40632813 -0.32679688 11.68765625 -0.52734375 13.0078125 C-0.76130859 14.48894531 -0.76130859 14.48894531 -1 16 C-1.33 16 -1.66 16 -2 16 C-2.33 13.36 -2.66 10.72 -3 8 C-3.99 8.495 -3.99 8.495 -5 9 C-3.7508258 5.54074837 -2.32472205 2.85306797 0 0 Z " fill="#C6D2CC" transform="translate(291,99)"/>
<path d="M0 0 C0.99 1.32 1.98 2.64 3 4 C1.68 5.32 0.36 6.64 -1 8 C-1.99 7.01 -2.98 6.02 -4 5 C-2.68 3.35 -1.36 1.7 0 0 Z " fill="#2C5843" transform="translate(367,104)"/>
<path d="M0 0 C2.31 0 4.62 0 7 0 C7 0.66 7 1.32 7 2 C9.31 2 11.62 2 14 2 C14 2.33 14 2.66 14 3 C12.04174127 3.02694851 10.08337774 3.04637218 8.125 3.0625 C7.03445313 3.07410156 5.94390625 3.08570312 4.8203125 3.09765625 C2 3 2 3 0 2 C0 1.34 0 0.68 0 0 Z " fill="#517463" transform="translate(334,69)"/>
<path d="M0 0 C0.33 0.66 0.66 1.32 1 2 C0.00390625 3.9453125 0.00390625 3.9453125 -1.4375 6.125 C-1.91058594 6.84945312 -2.38367188 7.57390625 -2.87109375 8.3203125 C-3.24363281 8.87460937 -3.61617187 9.42890625 -4 10 C-4.66 9.01 -5.32 8.02 -6 7 C-2.25 1.125 -2.25 1.125 0 0 Z " fill="#486E5C" transform="translate(162,48)"/>
<path d="M0 0 C0.66 0 1.32 0 2 0 C1.875 2.8125 1.875 2.8125 1 6 C-2.0625 7.875 -2.0625 7.875 -5 9 C-3.7580393 5.56072421 -2.44259716 2.74792181 0 0 Z " fill="#13432C" transform="translate(164,48)"/>
<path d="M0 0 C0.66 1.32 1.32 2.64 2 4 C0.35 5.65 -1.3 7.3 -3 9 C-3 8.34 -3 7.68 -3 7 C-3.66 6.67 -4.32 6.34 -5 6 C-3.35 4.02 -1.7 2.04 0 0 Z " fill="#2D5844" transform="translate(194,106)"/>
<path d="M0 0 C0 4.41102954 -2.19272722 6.16966229 -5.1875 9.25 C-5.785625 9.8275 -6.38375 10.405 -7 11 C-7.33 10.01 -7.66 9.02 -8 8 C-5.36 5.36 -2.72 2.72 0 0 Z " fill="#2B5742" transform="translate(238,106)"/>
<path d="M0 0 C0.66 0 1.32 0 2 0 C1.64950425 3.24208567 1.43778819 4.61527704 -1.0625 6.8125 C-1.701875 7.204375 -2.34125 7.59625 -3 8 C-3 3.77471908 -2.74375671 2.95481492 0 0 Z " fill="#1E4C36" transform="translate(263,75)"/>
<path d="M0 0 C0 0.66 0 1.32 0 2 C-1.65071396 3.02611949 -3.31970006 4.02308143 -5 5 C-6.75149165 6.58245275 -6.75149165 6.58245275 -8 8 C-8.66 7.67 -9.32 7.34 -10 7 C-4.34042553 0 -4.34042553 0 0 0 Z " fill="#305A46" transform="translate(174,35)"/>
<path d="M0 0 C0.99 0 1.98 0 3 0 C2.4409112 3.24271506 1.5867822 4.93057424 -1 7 C-1.66 7 -2.32 7 -3 7 C-1.125 1.125 -1.125 1.125 0 0 Z " fill="#15452E" transform="translate(188,113)"/>
<path d="M0 0 C0.66 0 1.32 0 2 0 C1.25 4.75 1.25 4.75 -1 7 C-1.99 6.34 -2.98 5.68 -4 5 C-2.71937515 3.2925002 -1.38232443 1.62626404 0 0 Z " fill="#26523D" transform="translate(375,94)"/>
<path d="M0 0 C2.30143236 3.45214853 2.13833854 4.23479324 1.625 8.1875 C1.51414063 9.08855469 1.40328125 9.98960938 1.2890625 10.91796875 C1.19367188 11.60503906 1.09828125 12.29210937 1 13 C0.67 13 0.34 13 0 13 C-0.83796731 8.34462607 -1.0161692 4.62921525 0 0 Z " fill="#3D6551" transform="translate(140,98)"/>
<path d="M0 0 C0.66 1.32 1.32 2.64 2 4 C0.625 6 0.625 6 -1 8 C-1.66 8 -2.32 8 -3 8 C-2.45276317 4.62537285 -1.9451 2.91765 0 0 Z " fill="#24513C" transform="translate(198,101)"/>
<path d="M0 0 C0.33 0 0.66 0 1 0 C1.33 1.65 1.66 3.3 2 5 C2.99 5 3.98 5 5 5 C4.34 6.32 3.68 7.64 3 9 C1.68 8.34 0.36 7.68 -1 7 C-0.67 4.69 -0.34 2.38 0 0 Z " fill="#345E4A" transform="translate(193,82)"/>
<path d="M0 0 C0.33 0.99 0.66 1.98 1 3 C3.64 3.33 6.28 3.66 9 4 C9 4.33 9 4.66 9 5 C6.03 5 3.06 5 0 5 C-0.33 5.66 -0.66 6.32 -1 7 C-2 4 -2 4 -1.0625 1.8125 C-0.5365625 0.9153125 -0.5365625 0.9153125 0 0 Z " fill="#638373" transform="translate(365,66)"/>
<path d="M0 0 C0.99 0.33 1.98 0.66 3 1 C1.515 3.475 1.515 3.475 0 6 C-0.99 5.34 -1.98 4.68 -3 4 C-2.01 2.68 -1.02 1.36 0 0 Z " fill="#2D5843" transform="translate(260,108)"/>
</svg>
